%TF.GenerationSoftware,KiCad,Pcbnew,9.0.3*%
%TF.CreationDate,2025-08-16T20:23:22+09:00*%
%TF.ProjectId,ADF4351_with_raspberry_pi_pico,41444634-3335-4315-9f77-6974685f7261,rev?*%
%TF.SameCoordinates,Original*%
%TF.FileFunction,Copper,L2,Bot*%
%TF.FilePolarity,Positive*%
%FSLAX46Y46*%
G04 Gerber Fmt 4.6, Leading zero omitted, Abs format (unit mm)*
G04 Created by KiCad (PCBNEW 9.0.3) date 2025-08-16 20:23:22*
%MOMM*%
%LPD*%
G01*
G04 APERTURE LIST*
G04 Aperture macros list*
%AMRoundRect*
0 Rectangle with rounded corners*
0 $1 Rounding radius*
0 $2 $3 $4 $5 $6 $7 $8 $9 X,Y pos of 4 corners*
0 Add a 4 corners polygon primitive as box body*
4,1,4,$2,$3,$4,$5,$6,$7,$8,$9,$2,$3,0*
0 Add four circle primitives for the rounded corners*
1,1,$1+$1,$2,$3*
1,1,$1+$1,$4,$5*
1,1,$1+$1,$6,$7*
1,1,$1+$1,$8,$9*
0 Add four rect primitives between the rounded corners*
20,1,$1+$1,$2,$3,$4,$5,0*
20,1,$1+$1,$4,$5,$6,$7,0*
20,1,$1+$1,$6,$7,$8,$9,0*
20,1,$1+$1,$8,$9,$2,$3,0*%
%AMFreePoly0*
4,1,37,0.000000,0.796148,0.078414,0.796148,0.232228,0.765552,0.377117,0.705537,0.507515,0.618408,0.618408,0.507515,0.705537,0.377117,0.765552,0.232228,0.796148,0.078414,0.796148,-0.078414,0.765552,-0.232228,0.705537,-0.377117,0.618408,-0.507515,0.507515,-0.618408,0.377117,-0.705537,0.232228,-0.765552,0.078414,-0.796148,0.000000,-0.796148,0.000000,-0.800000,-0.600000,-0.800000,
-0.603843,-0.796157,-0.639018,-0.796157,-0.711114,-0.766294,-0.766294,-0.711114,-0.796157,-0.639018,-0.796157,-0.603843,-0.800000,-0.600000,-0.800000,0.600000,-0.796157,0.603843,-0.796157,0.639018,-0.766294,0.711114,-0.711114,0.766294,-0.639018,0.796157,-0.603843,0.796157,-0.600000,0.800000,0.000000,0.800000,0.000000,0.796148,0.000000,0.796148,$1*%
%AMFreePoly1*
4,1,37,0.603843,0.796157,0.639018,0.796157,0.711114,0.766294,0.766294,0.711114,0.796157,0.639018,0.796157,0.603843,0.800000,0.600000,0.800000,-0.600000,0.796157,-0.603843,0.796157,-0.639018,0.766294,-0.711114,0.711114,-0.766294,0.639018,-0.796157,0.603843,-0.796157,0.600000,-0.800000,0.000000,-0.800000,0.000000,-0.796148,-0.078414,-0.796148,-0.232228,-0.765552,-0.377117,-0.705537,
-0.507515,-0.618408,-0.618408,-0.507515,-0.705537,-0.377117,-0.765552,-0.232228,-0.796148,-0.078414,-0.796148,0.078414,-0.765552,0.232228,-0.705537,0.377117,-0.618408,0.507515,-0.507515,0.618408,-0.377117,0.705537,-0.232228,0.765552,-0.078414,0.796148,0.000000,0.796148,0.000000,0.800000,0.600000,0.800000,0.603843,0.796157,0.603843,0.796157,$1*%
G04 Aperture macros list end*
%TA.AperFunction,SMDPad,CuDef*%
%ADD10RoundRect,0.237500X0.237500X-0.250000X0.237500X0.250000X-0.237500X0.250000X-0.237500X-0.250000X0*%
%TD*%
%TA.AperFunction,ComponentPad*%
%ADD11C,2.200000*%
%TD*%
%TA.AperFunction,ComponentPad*%
%ADD12R,1.700000X1.700000*%
%TD*%
%TA.AperFunction,ComponentPad*%
%ADD13C,1.700000*%
%TD*%
%TA.AperFunction,ComponentPad*%
%ADD14C,2.100000*%
%TD*%
%TA.AperFunction,ComponentPad*%
%ADD15C,0.800000*%
%TD*%
%TA.AperFunction,ComponentPad*%
%ADD16C,6.400000*%
%TD*%
%TA.AperFunction,SMDPad,CuDef*%
%ADD17RoundRect,0.237500X-0.250000X-0.237500X0.250000X-0.237500X0.250000X0.237500X-0.250000X0.237500X0*%
%TD*%
%TA.AperFunction,SMDPad,CuDef*%
%ADD18RoundRect,0.237500X0.344715X-0.008839X-0.008839X0.344715X-0.344715X0.008839X0.008839X-0.344715X0*%
%TD*%
%TA.AperFunction,SMDPad,CuDef*%
%ADD19RoundRect,0.237500X-0.344715X0.008839X0.008839X-0.344715X0.344715X-0.008839X-0.008839X0.344715X0*%
%TD*%
%TA.AperFunction,ComponentPad*%
%ADD20C,1.600000*%
%TD*%
%TA.AperFunction,ComponentPad*%
%ADD21FreePoly0,0.000000*%
%TD*%
%TA.AperFunction,ComponentPad*%
%ADD22FreePoly1,0.000000*%
%TD*%
%TA.AperFunction,ComponentPad*%
%ADD23RoundRect,0.200000X-0.600000X-0.600000X0.600000X-0.600000X0.600000X0.600000X-0.600000X0.600000X0*%
%TD*%
%TA.AperFunction,ViaPad*%
%ADD24C,0.600000*%
%TD*%
%TA.AperFunction,Conductor*%
%ADD25C,0.500000*%
%TD*%
%TA.AperFunction,Conductor*%
%ADD26C,0.300000*%
%TD*%
%TA.AperFunction,Conductor*%
%ADD27C,0.800000*%
%TD*%
%TA.AperFunction,Conductor*%
%ADD28C,0.400000*%
%TD*%
G04 APERTURE END LIST*
D10*
%TO.P,R6,2*%
%TO.N,Encoder_PUSH*%
X143500000Y-90000000D03*
%TO.P,R6,1*%
%TO.N,GND*%
X143500000Y-91825000D03*
%TD*%
D11*
%TO.P,J2,1*%
%TO.N,GND*%
X104856000Y-92040000D03*
%TO.P,J2,2*%
%TO.N,+3.3V*%
X102316000Y-92040000D03*
%TO.P,J2,3*%
%TO.N,CE*%
X104856000Y-94580000D03*
%TO.P,J2,4*%
%TO.N,GND*%
X102316000Y-94580000D03*
%TO.P,J2,5*%
%TO.N,LE*%
X104856000Y-97120000D03*
%TO.P,J2,6*%
%TO.N,DAT*%
X102316000Y-97120000D03*
%TO.P,J2,7*%
%TO.N,CLK*%
X104856000Y-99660000D03*
%TO.P,J2,8*%
%TO.N,MUX*%
X102316000Y-99660000D03*
%TO.P,J2,9*%
%TO.N,LD*%
X104856000Y-102200000D03*
%TO.P,J2,10*%
%TO.N,PDR*%
X102316000Y-102200000D03*
%TD*%
D12*
%TO.P,J4,1,Pin_1*%
%TO.N,Encoder_A*%
X103500000Y-111960000D03*
D13*
%TO.P,J4,2,Pin_2*%
%TO.N,GND*%
X103500000Y-114500000D03*
%TO.P,J4,3,Pin_3*%
%TO.N,Encoder_B*%
X103500000Y-117040000D03*
%TD*%
D14*
%TO.P,J3,1*%
%TO.N,+5V*%
X102316000Y-75396000D03*
%TO.P,J3,2*%
%TO.N,UART0_TX*%
X102316000Y-77896000D03*
%TO.P,J3,3*%
%TO.N,UART0_RX*%
X102316000Y-80396000D03*
%TO.P,J3,4*%
%TO.N,GND*%
X102316000Y-82896000D03*
%TD*%
D15*
%TO.P,H1,1*%
%TO.N,N/C*%
X89600000Y-75500000D03*
X90302944Y-73802944D03*
X90302944Y-77197056D03*
X92000000Y-73100000D03*
D16*
X92000000Y-75500000D03*
D15*
X92000000Y-77900000D03*
X93697056Y-73802944D03*
X93697056Y-77197056D03*
X94400000Y-75500000D03*
%TD*%
%TO.P,H2,1*%
%TO.N,N/C*%
X89600000Y-117500000D03*
X90302944Y-115802944D03*
X90302944Y-119197056D03*
X92000000Y-115100000D03*
D16*
X92000000Y-117500000D03*
D15*
X92000000Y-119900000D03*
X93697056Y-115802944D03*
X93697056Y-119197056D03*
X94400000Y-117500000D03*
%TD*%
%TO.P,H3,1*%
%TO.N,N/C*%
X141600000Y-75500000D03*
X142302944Y-73802944D03*
X142302944Y-77197056D03*
X144000000Y-73100000D03*
D16*
X144000000Y-75500000D03*
D15*
X144000000Y-77900000D03*
X145697056Y-73802944D03*
X145697056Y-77197056D03*
X146400000Y-75500000D03*
%TD*%
D14*
%TO.P,J1,1*%
%TO.N,+3.3V*%
X144000000Y-102000000D03*
%TO.P,J1,2*%
%TO.N,GND*%
X144000000Y-104500000D03*
%TO.P,J1,3*%
%TO.N,I2C0_SCL*%
X144000000Y-107000000D03*
%TO.P,J1,4*%
%TO.N,I2C0_SDA*%
X144000000Y-109500000D03*
%TD*%
D12*
%TO.P,J5,1,Pin_1*%
%TO.N,Net-(J5-Pin_1)*%
X140975000Y-95050000D03*
D13*
%TO.P,J5,2,Pin_2*%
%TO.N,Net-(J5-Pin_2)*%
X140975000Y-92510000D03*
%TO.P,J5,3,Pin_3*%
%TO.N,Encoder_PUSH*%
X140975000Y-89970000D03*
%TO.P,J5,4,Pin_4*%
%TO.N,Net-(J5-Pin_4)*%
X140975000Y-87430000D03*
%TO.P,J5,5,Pin_5*%
%TO.N,+5V*%
X140975000Y-84890000D03*
%TD*%
D15*
%TO.P,H4,1*%
%TO.N,N/C*%
X141600000Y-117500000D03*
X142302944Y-115802944D03*
X142302944Y-119197056D03*
X144000000Y-115100000D03*
D16*
X144000000Y-117500000D03*
D15*
X144000000Y-119900000D03*
X145697056Y-115802944D03*
X145697056Y-119197056D03*
X146400000Y-117500000D03*
%TD*%
D17*
%TO.P,R3,1*%
%TO.N,Encoder_LED_RED*%
X137175000Y-95000000D03*
%TO.P,R3,2*%
%TO.N,Net-(J5-Pin_1)*%
X139000000Y-95000000D03*
%TD*%
D18*
%TO.P,R2,1*%
%TO.N,+3.3V*%
X143790470Y-112290470D03*
%TO.P,R2,2*%
%TO.N,I2C0_SDA*%
X142500000Y-111000000D03*
%TD*%
D17*
%TO.P,R5,1*%
%TO.N,Encoder_LED_BLUE*%
X137175000Y-87500000D03*
%TO.P,R5,2*%
%TO.N,Net-(J5-Pin_4)*%
X139000000Y-87500000D03*
%TD*%
D19*
%TO.P,R1,1*%
%TO.N,+3.3V*%
X139709530Y-108209530D03*
%TO.P,R1,2*%
%TO.N,I2C0_SCL*%
X141000000Y-109500000D03*
%TD*%
D17*
%TO.P,R4,1*%
%TO.N,Encoder_LED_GREEN*%
X137175000Y-92500000D03*
%TO.P,R4,2*%
%TO.N,Net-(J5-Pin_2)*%
X139000000Y-92500000D03*
%TD*%
D20*
%TO.P,A1,40,VBUS*%
%TO.N,+5V*%
X132080000Y-71628000D03*
%TO.P,A1,39,VSYS*%
%TO.N,unconnected-(A1-VSYS-Pad39)_1*%
X132080000Y-74168000D03*
D21*
%TO.P,A1,38,GND*%
%TO.N,GND*%
X132080000Y-76708000D03*
D20*
%TO.P,A1,37,3V3_EN*%
%TO.N,unconnected-(A1-3V3_EN-Pad37)*%
X132080000Y-79248000D03*
%TO.P,A1,36,3V3*%
%TO.N,+3.3V*%
X132080000Y-81788000D03*
%TO.P,A1,35,ADC_VREF*%
%TO.N,unconnected-(A1-ADC_VREF-Pad35)_1*%
X132080000Y-84328000D03*
%TO.P,A1,34,GPIO28_ADC2*%
%TO.N,unconnected-(A1-GPIO28_ADC2-Pad34)*%
X132080000Y-86868000D03*
D21*
%TO.P,A1,33,AGND*%
%TO.N,unconnected-(A1-AGND-Pad33)_1*%
X132080000Y-89408000D03*
D20*
%TO.P,A1,32,GPIO27_ADC1*%
%TO.N,unconnected-(A1-GPIO27_ADC1-Pad32)*%
X132080000Y-91948000D03*
%TO.P,A1,31,GPIO26_ADC0*%
%TO.N,unconnected-(A1-GPIO26_ADC0-Pad31)_1*%
X132080000Y-94488000D03*
%TO.P,A1,30,RUN*%
%TO.N,unconnected-(A1-RUN-Pad30)*%
X132080000Y-97028000D03*
%TO.P,A1,29,GPIO22*%
%TO.N,unconnected-(A1-GPIO22-Pad29)*%
X132080000Y-99568000D03*
D21*
%TO.P,A1,28,GND*%
%TO.N,GND*%
X132080000Y-102108000D03*
D20*
%TO.P,A1,27,GPIO21*%
%TO.N,Encoder_LED_BLUE*%
X132080000Y-104648000D03*
%TO.P,A1,26,GPIO20*%
%TO.N,Encoder_LED_GREEN*%
X132080000Y-107188000D03*
%TO.P,A1,25,GPIO19*%
%TO.N,Encoder_LED_RED*%
X132080000Y-109728000D03*
%TO.P,A1,24,GPIO18*%
%TO.N,Encoder_PUSH*%
X132080000Y-112268000D03*
D21*
%TO.P,A1,23,GND*%
%TO.N,GND*%
X132080000Y-114808000D03*
D20*
%TO.P,A1,22,GPIO17*%
%TO.N,I2C0_SCL*%
X132080000Y-117348000D03*
%TO.P,A1,21,GPIO16*%
%TO.N,I2C0_SDA*%
X132080000Y-119888000D03*
%TO.P,A1,20,GPIO15*%
%TO.N,unconnected-(A1-GPIO15-Pad20)_1*%
X114300000Y-119888000D03*
%TO.P,A1,19,GPIO14*%
%TO.N,unconnected-(A1-GPIO14-Pad19)_1*%
X114300000Y-117348000D03*
D22*
%TO.P,A1,18,GND*%
%TO.N,GND*%
X114300000Y-114808000D03*
D20*
%TO.P,A1,17,GPIO13*%
%TO.N,unconnected-(A1-GPIO13-Pad17)_1*%
X114300000Y-112268000D03*
%TO.P,A1,16,GPIO12*%
%TO.N,unconnected-(A1-GPIO12-Pad16)*%
X114300000Y-109728000D03*
%TO.P,A1,15,GPIO11*%
%TO.N,Encoder_B*%
X114300000Y-107188000D03*
%TO.P,A1,14,GPIO10*%
%TO.N,Encoder_A*%
X114300000Y-104648000D03*
D22*
%TO.P,A1,13,GND*%
%TO.N,GND*%
X114300000Y-102108000D03*
D20*
%TO.P,A1,12,GPIO9*%
%TO.N,unconnected-(A1-GPIO9-Pad12)*%
X114300000Y-99568000D03*
%TO.P,A1,11,GPIO8*%
%TO.N,LD*%
X114300000Y-97028000D03*
%TO.P,A1,10,GPIO7*%
%TO.N,LE*%
X114300000Y-94488000D03*
%TO.P,A1,9,GPIO6*%
%TO.N,PDR*%
X114300000Y-91948000D03*
D22*
%TO.P,A1,8,GND*%
%TO.N,GND*%
X114300000Y-89408000D03*
D20*
%TO.P,A1,7,GPIO5*%
%TO.N,CE*%
X114300000Y-86868000D03*
%TO.P,A1,6,GPIO4*%
%TO.N,MUX*%
X114300000Y-84328000D03*
%TO.P,A1,5,GPIO3*%
%TO.N,DAT*%
X114300000Y-81788000D03*
%TO.P,A1,4,GPIO2*%
%TO.N,CLK*%
X114300000Y-79248000D03*
D22*
%TO.P,A1,3,GND*%
%TO.N,GND*%
X114300000Y-76708000D03*
D20*
%TO.P,A1,2,GPIO1*%
%TO.N,UART0_RX*%
X114300000Y-74168000D03*
D23*
%TO.P,A1,1,GPIO0*%
%TO.N,UART0_TX*%
X114300000Y-71628000D03*
%TD*%
D24*
%TO.N,GND*%
X142240000Y-105664000D03*
X136906000Y-110363000D03*
X94284800Y-102057200D03*
X123063000Y-99441000D03*
X123063000Y-93218000D03*
X116586000Y-83820000D03*
X143637000Y-95885000D03*
X107823000Y-93472000D03*
X103759000Y-90170000D03*
X107696000Y-90043000D03*
X107950000Y-85852000D03*
X110490000Y-91186000D03*
X116078000Y-118237000D03*
X105664000Y-117221000D03*
X103759000Y-121285000D03*
X110998000Y-120904000D03*
X111125000Y-111252000D03*
X106045000Y-104648000D03*
X110871000Y-105537000D03*
X110871000Y-103505000D03*
X111125000Y-99822000D03*
X105283000Y-113157000D03*
X106045000Y-110490000D03*
X99568000Y-115697000D03*
X94869000Y-109728000D03*
X95250000Y-120904000D03*
X88036400Y-115570000D03*
X89408000Y-105664000D03*
X99822000Y-105029000D03*
X93116400Y-91795600D03*
X88519000Y-98755200D03*
X100330000Y-96774000D03*
X101092000Y-89535000D03*
X98044000Y-89662000D03*
X89865200Y-88696800D03*
X93980000Y-85217000D03*
X97536000Y-81026000D03*
X88773000Y-80772000D03*
X95250000Y-71628000D03*
X103759000Y-73787000D03*
X106807000Y-71501000D03*
X109728000Y-79756000D03*
X104775000Y-84963000D03*
X104648000Y-80264000D03*
X107950000Y-76708000D03*
X110617000Y-76708000D03*
X116078000Y-76708000D03*
X129667000Y-76073000D03*
X128270000Y-81534000D03*
X123317000Y-81280000D03*
X127000000Y-88265000D03*
X118745000Y-89535000D03*
X126873000Y-97028000D03*
X119126000Y-97155000D03*
X123190000Y-108839000D03*
X126746000Y-103505000D03*
X119253000Y-103759000D03*
X127127000Y-111760000D03*
X118999000Y-111760000D03*
X119126000Y-120523000D03*
X127889000Y-120523000D03*
X137541000Y-118872000D03*
X147574000Y-114554000D03*
X147955000Y-90678000D03*
X147955000Y-84963000D03*
X147828000Y-78867000D03*
X135382000Y-71628000D03*
X138557000Y-74041000D03*
X143129000Y-82931000D03*
X143510000Y-87630000D03*
X144145000Y-93599000D03*
X144018000Y-99949000D03*
X146177000Y-102108000D03*
X145542000Y-112268000D03*
X142494000Y-112649000D03*
X141097000Y-107569000D03*
X135001000Y-110871000D03*
X135128000Y-113665000D03*
X138938000Y-109728000D03*
X138226800Y-107645200D03*
X137033000Y-86106000D03*
X135255000Y-88011000D03*
X135382000Y-84328000D03*
X135128000Y-80645000D03*
X135382000Y-76708000D03*
X139700000Y-82931000D03*
X138430000Y-78867000D03*
X138430000Y-83820000D03*
%TO.N,PDR*%
X110500000Y-98500000D03*
%TD*%
D25*
%TO.N,+3.3V*%
X113781818Y-77997000D02*
X128289000Y-77997000D01*
X102316000Y-89462818D02*
X113781818Y-77997000D01*
X128289000Y-77997000D02*
X132080000Y-81788000D01*
X102316000Y-92040000D02*
X102316000Y-89462818D01*
%TO.N,Net-(J5-Pin_4)*%
X140905000Y-87500000D02*
X140975000Y-87430000D01*
X139000000Y-87500000D02*
X140905000Y-87500000D01*
D26*
%TO.N,Encoder_PUSH*%
X142674000Y-90826000D02*
X143500000Y-90000000D01*
X132080000Y-111938686D02*
X142674000Y-101344686D01*
X132080000Y-112268000D02*
X132080000Y-111938686D01*
X142674000Y-101344686D02*
X142674000Y-90826000D01*
X141005000Y-90000000D02*
X140975000Y-89970000D01*
X143500000Y-90000000D02*
X141005000Y-90000000D01*
%TO.N,Net-(J5-Pin_2)*%
X140965000Y-92500000D02*
X140975000Y-92510000D01*
X139000000Y-92500000D02*
X140965000Y-92500000D01*
%TO.N,Net-(J5-Pin_1)*%
X140925000Y-95000000D02*
X140975000Y-95050000D01*
X139000000Y-95000000D02*
X140925000Y-95000000D01*
%TO.N,Encoder_LED_RED*%
X136500000Y-105000000D02*
X132000000Y-109500000D01*
X136500000Y-95675000D02*
X136500000Y-105000000D01*
X137175000Y-95000000D02*
X136500000Y-95675000D01*
%TO.N,Encoder_LED_GREEN*%
X135500000Y-104000000D02*
X132000000Y-107500000D01*
X137175000Y-92500000D02*
X135500000Y-94175000D01*
X135500000Y-94175000D02*
X135500000Y-104000000D01*
%TO.N,Encoder_LED_BLUE*%
X134500000Y-102000000D02*
X132000000Y-104500000D01*
X134500000Y-90175000D02*
X134500000Y-102000000D01*
X137175000Y-87500000D02*
X134500000Y-90175000D01*
D25*
%TO.N,+3.3V*%
X143790470Y-112290470D02*
X146000000Y-110080940D01*
X146000000Y-110080940D02*
X146000000Y-104000000D01*
X146000000Y-104000000D02*
X144000000Y-102000000D01*
X139709530Y-106290470D02*
X144000000Y-102000000D01*
X139709530Y-108209530D02*
X139709530Y-106290470D01*
%TO.N,I2C0_SDA*%
X133612000Y-119888000D02*
X144000000Y-109500000D01*
X132080000Y-119888000D02*
X133612000Y-119888000D01*
%TO.N,I2C0_SCL*%
X133000000Y-117500000D02*
X132000000Y-117500000D01*
X143500000Y-107000000D02*
X133000000Y-117500000D01*
X144000000Y-107000000D02*
X143500000Y-107000000D01*
D26*
%TO.N,PDR*%
X111500000Y-92000000D02*
X114500000Y-92000000D01*
X110500000Y-93000000D02*
X111500000Y-92000000D01*
X110500000Y-98500000D02*
X110500000Y-93000000D01*
%TO.N,MUX*%
X109500000Y-99608024D02*
X109500000Y-89000000D01*
X100865000Y-102865000D02*
X101651000Y-103651000D01*
X109500000Y-89000000D02*
X114000000Y-84500000D01*
X100865000Y-101111000D02*
X100865000Y-102865000D01*
X105457024Y-103651000D02*
X109500000Y-99608024D01*
X102316000Y-99660000D02*
X100865000Y-101111000D01*
X101651000Y-103651000D02*
X105457024Y-103651000D01*
%TO.N,CLK*%
X109000000Y-84000000D02*
X114000000Y-79000000D01*
X109000000Y-95516000D02*
X109000000Y-84000000D01*
X104856000Y-99660000D02*
X109000000Y-95516000D01*
D27*
%TO.N,GND*%
X115689000Y-112591900D02*
X120584900Y-107696000D01*
X120584900Y-107696000D02*
X129540000Y-107696000D01*
X114300000Y-114808000D02*
X112899000Y-113407000D01*
X130691000Y-113419000D02*
X130691000Y-112591900D01*
X130691000Y-112591900D02*
X129540000Y-111440900D01*
X115689000Y-113419000D02*
X115689000Y-112591900D01*
X112899000Y-103509000D02*
X114300000Y-102108000D01*
X112899000Y-113407000D02*
X112899000Y-103509000D01*
X129540000Y-104648000D02*
X132080000Y-102108000D01*
X129540000Y-111440900D02*
X129540000Y-104648000D01*
X114300000Y-114808000D02*
X115689000Y-113419000D01*
X132080000Y-114808000D02*
X130691000Y-113419000D01*
D28*
%TO.N,+5V*%
X116563000Y-75461000D02*
X117302000Y-76200000D01*
X117302000Y-76200000D02*
X127000000Y-76200000D01*
X102381000Y-75461000D02*
X116563000Y-75461000D01*
X127000000Y-76200000D02*
X131572000Y-71628000D01*
X102316000Y-75396000D02*
X102381000Y-75461000D01*
D25*
%TO.N,Encoder_LED_BLUE*%
X132172000Y-104740000D02*
X132080000Y-104648000D01*
%TD*%
%TA.AperFunction,Conductor*%
%TO.N,GND*%
G36*
X112942539Y-71020185D02*
G01*
X112988294Y-71072989D01*
X112999500Y-71124500D01*
X112999500Y-72284613D01*
X113005913Y-72355192D01*
X113005913Y-72355194D01*
X113005914Y-72355196D01*
X113056522Y-72517606D01*
X113108617Y-72603782D01*
X113144530Y-72663188D01*
X113264811Y-72783469D01*
X113264813Y-72783470D01*
X113264815Y-72783472D01*
X113410394Y-72871478D01*
X113497566Y-72898641D01*
X113555712Y-72937378D01*
X113583686Y-73001403D01*
X113572605Y-73070388D01*
X113533560Y-73117344D01*
X113452782Y-73176032D01*
X113308028Y-73320786D01*
X113187715Y-73486386D01*
X113094781Y-73668776D01*
X113031522Y-73863465D01*
X112999500Y-74065648D01*
X112999500Y-74270352D01*
X113015322Y-74370248D01*
X113031523Y-74472535D01*
X113031523Y-74472538D01*
X113072348Y-74598182D01*
X113074343Y-74668023D01*
X113038263Y-74727856D01*
X112975562Y-74758684D01*
X112954417Y-74760500D01*
X103808350Y-74760500D01*
X103741311Y-74740815D01*
X103697866Y-74692796D01*
X103642106Y-74583361D01*
X103642104Y-74583358D01*
X103642103Y-74583356D01*
X103498660Y-74385923D01*
X103498656Y-74385918D01*
X103326081Y-74213343D01*
X103326076Y-74213339D01*
X103128642Y-74069896D01*
X103128641Y-74069895D01*
X103128639Y-74069894D01*
X102911185Y-73959096D01*
X102679076Y-73883679D01*
X102679074Y-73883678D01*
X102679072Y-73883678D01*
X102510769Y-73857021D01*
X102438027Y-73845500D01*
X102193973Y-73845500D01*
X102138093Y-73854350D01*
X101952927Y-73883678D01*
X101720812Y-73959097D01*
X101503357Y-74069896D01*
X101305923Y-74213339D01*
X101305918Y-74213343D01*
X101133343Y-74385918D01*
X101133339Y-74385923D01*
X100989896Y-74583357D01*
X100879097Y-74800812D01*
X100879096Y-74800814D01*
X100879096Y-74800815D01*
X100863241Y-74849613D01*
X100803678Y-75032927D01*
X100766503Y-75267642D01*
X100765500Y-75273973D01*
X100765500Y-75518027D01*
X100768914Y-75539584D01*
X100791438Y-75681794D01*
X100803679Y-75759076D01*
X100879096Y-75991185D01*
X100989568Y-76208000D01*
X100989896Y-76208642D01*
X101133339Y-76406076D01*
X101133343Y-76406081D01*
X101285581Y-76558319D01*
X101319066Y-76619642D01*
X101314082Y-76689334D01*
X101285581Y-76733681D01*
X101133343Y-76885918D01*
X101133339Y-76885923D01*
X100989896Y-77083357D01*
X100879097Y-77300812D01*
X100803678Y-77532927D01*
X100765500Y-77773973D01*
X100765500Y-78018026D01*
X100801480Y-78245197D01*
X100803679Y-78259076D01*
X100879096Y-78491185D01*
X100974205Y-78677848D01*
X100989896Y-78708642D01*
X101133339Y-78906076D01*
X101133343Y-78906081D01*
X101285581Y-79058319D01*
X101319066Y-79119642D01*
X101314082Y-79189334D01*
X101285581Y-79233681D01*
X101133343Y-79385918D01*
X101133339Y-79385923D01*
X100989896Y-79583357D01*
X100879097Y-79800812D01*
X100803678Y-80032927D01*
X100793813Y-80095213D01*
X100765500Y-80273973D01*
X100765500Y-80518027D01*
X100803679Y-80759076D01*
X100862720Y-80940786D01*
X100879097Y-80991187D01*
X100989896Y-81208642D01*
X101133339Y-81406076D01*
X101133343Y-81406081D01*
X101133345Y-81406083D01*
X101305917Y-81578655D01*
X101467308Y-81695912D01*
X101482097Y-81708544D01*
X102145765Y-82372212D01*
X102103708Y-82383482D01*
X101978292Y-82455890D01*
X101875890Y-82558292D01*
X101803482Y-82683708D01*
X101792212Y-82725765D01*
X101057544Y-81991097D01*
X100990319Y-82083626D01*
X100879560Y-82301001D01*
X100804165Y-82533040D01*
X100766000Y-82774006D01*
X100766000Y-83017993D01*
X100804165Y-83258959D01*
X100879560Y-83490998D01*
X100990323Y-83708380D01*
X101057543Y-83800901D01*
X101057544Y-83800902D01*
X101792212Y-83066234D01*
X101803482Y-83108292D01*
X101875890Y-83233708D01*
X101978292Y-83336110D01*
X102103708Y-83408518D01*
X102145765Y-83419787D01*
X101411096Y-84154454D01*
X101411097Y-84154456D01*
X101503619Y-84221676D01*
X101721001Y-84332439D01*
X101953040Y-84407834D01*
X102194007Y-84446000D01*
X102437993Y-84446000D01*
X102678959Y-84407834D01*
X102910998Y-84332439D01*
X103128377Y-84221678D01*
X103220901Y-84154454D01*
X103220902Y-84154454D01*
X102486234Y-83419787D01*
X102528292Y-83408518D01*
X102653708Y-83336110D01*
X102756110Y-83233708D01*
X102828518Y-83108292D01*
X102839787Y-83066235D01*
X103574454Y-83800902D01*
X103574454Y-83800901D01*
X103641678Y-83708377D01*
X103752439Y-83490998D01*
X103827834Y-83258959D01*
X103866000Y-83017993D01*
X103866000Y-82774006D01*
X103827834Y-82533040D01*
X103752439Y-82301001D01*
X103641676Y-82083619D01*
X103574456Y-81991097D01*
X103574454Y-81991096D01*
X102839787Y-82725764D01*
X102828518Y-82683708D01*
X102756110Y-82558292D01*
X102653708Y-82455890D01*
X102528292Y-82383482D01*
X102486232Y-82372212D01*
X103149901Y-81708544D01*
X103164684Y-81695917D01*
X103326083Y-81578655D01*
X103498655Y-81406083D01*
X103642106Y-81208639D01*
X103752904Y-80991185D01*
X103828321Y-80759076D01*
X103866500Y-80518027D01*
X103866500Y-80273973D01*
X103828321Y-80032924D01*
X103752904Y-79800815D01*
X103642106Y-79583361D01*
X103538235Y-79440394D01*
X103498660Y-79385923D01*
X103498656Y-79385918D01*
X103346419Y-79233681D01*
X103312934Y-79172358D01*
X103317918Y-79102666D01*
X103346419Y-79058319D01*
X103416353Y-78988385D01*
X103498655Y-78906083D01*
X103642106Y-78708639D01*
X103752904Y-78491185D01*
X103828321Y-78259076D01*
X103866500Y-78018027D01*
X103866500Y-77773973D01*
X103828321Y-77532924D01*
X103752904Y-77300815D01*
X103642106Y-77083361D01*
X103592444Y-77015007D01*
X103498660Y-76885923D01*
X103498656Y-76885918D01*
X103346419Y-76733681D01*
X103312934Y-76672358D01*
X103317918Y-76602666D01*
X103346419Y-76558319D01*
X103389731Y-76515007D01*
X103498655Y-76406083D01*
X103573442Y-76303147D01*
X103639218Y-76212615D01*
X103694548Y-76169949D01*
X103739536Y-76161500D01*
X112933359Y-76161500D01*
X113000398Y-76181185D01*
X113046153Y-76233989D01*
X113056097Y-76303147D01*
X113052020Y-76321495D01*
X113035444Y-76376135D01*
X113004701Y-76530697D01*
X113004701Y-76530700D01*
X112995000Y-76629210D01*
X112995000Y-76786789D01*
X113004701Y-76885299D01*
X113004701Y-76885302D01*
X113035444Y-77039864D01*
X113064185Y-77134612D01*
X113124490Y-77280198D01*
X113171160Y-77367511D01*
X113186231Y-77390065D01*
X113207110Y-77456742D01*
X113188626Y-77524123D01*
X113170811Y-77546638D01*
X101733045Y-88984404D01*
X101707710Y-89022324D01*
X101707709Y-89022326D01*
X101650914Y-89107325D01*
X101594343Y-89243900D01*
X101594340Y-89243910D01*
X101565500Y-89388897D01*
X101565500Y-90550128D01*
X101545815Y-90617167D01*
X101497797Y-90660612D01*
X101477151Y-90671131D01*
X101273350Y-90819201D01*
X101273345Y-90819205D01*
X101095205Y-90997345D01*
X101095201Y-90997350D01*
X100947132Y-91201151D01*
X100832760Y-91425616D01*
X100754910Y-91665214D01*
X100715500Y-91914038D01*
X100715500Y-92165961D01*
X100754910Y-92414785D01*
X100832760Y-92654383D01*
X100880437Y-92747953D01*
X100946995Y-92878581D01*
X100947132Y-92878848D01*
X101095201Y-93082649D01*
X101095205Y-93082654D01*
X101273345Y-93260794D01*
X101273350Y-93260798D01*
X101477153Y-93408869D01*
X101503018Y-93422048D01*
X101534405Y-93444852D01*
X102104940Y-94015387D01*
X102084409Y-94020889D01*
X101947592Y-94099881D01*
X101835881Y-94211592D01*
X101756889Y-94348409D01*
X101751387Y-94368940D01*
X101021748Y-93639300D01*
X101021747Y-93639301D01*
X100947559Y-93741413D01*
X100833219Y-93965815D01*
X100755397Y-94205330D01*
X100716000Y-94454071D01*
X100716000Y-94705928D01*
X100755397Y-94954669D01*
X100833219Y-95194184D01*
X100947557Y-95418583D01*
X101021748Y-95520697D01*
X101021748Y-95520698D01*
X101751387Y-94791059D01*
X101756889Y-94811591D01*
X101835881Y-94948408D01*
X101947592Y-95060119D01*
X102084409Y-95139111D01*
X102104940Y-95144612D01*
X101534404Y-95715147D01*
X101503023Y-95737948D01*
X101477152Y-95751131D01*
X101273350Y-95899201D01*
X101273345Y-95899205D01*
X101095205Y-96077345D01*
X101095201Y-96077350D01*
X100947132Y-96281151D01*
X100832760Y-96505616D01*
X100754910Y-96745214D01*
X100715500Y-96994038D01*
X100715500Y-97245961D01*
X100754910Y-97494785D01*
X100832760Y-97734383D01*
X100947132Y-97958848D01*
X101095201Y-98162649D01*
X101095205Y-98162654D01*
X101234870Y-98302319D01*
X101268355Y-98363642D01*
X101263371Y-98433334D01*
X101234870Y-98477681D01*
X101095205Y-98617345D01*
X101095201Y-98617350D01*
X100947132Y-98821151D01*
X100832760Y-99045616D01*
X100754910Y-99285214D01*
X100715500Y-99534038D01*
X100715500Y-99785961D01*
X100754910Y-100034786D01*
X100754910Y-100034789D01*
X100796749Y-100163554D01*
X100798744Y-100233395D01*
X100766499Y-100289553D01*
X100359724Y-100696328D01*
X100308347Y-100773221D01*
X100288535Y-100802871D01*
X100239499Y-100921255D01*
X100239497Y-100921261D01*
X100214500Y-101046928D01*
X100214500Y-102929070D01*
X100236449Y-103039409D01*
X100236449Y-103039411D01*
X100239497Y-103054736D01*
X100239501Y-103054749D01*
X100288532Y-103173123D01*
X100359726Y-103279673D01*
X101236326Y-104156273D01*
X101236329Y-104156275D01*
X101236331Y-104156277D01*
X101342873Y-104227465D01*
X101461256Y-104276501D01*
X101461260Y-104276501D01*
X101461261Y-104276502D01*
X101586928Y-104301500D01*
X101586931Y-104301500D01*
X105521095Y-104301500D01*
X105605639Y-104284682D01*
X105646768Y-104276501D01*
X105765151Y-104227465D01*
X105871693Y-104156277D01*
X106973234Y-103054736D01*
X108089489Y-101938482D01*
X110005271Y-100022699D01*
X110005276Y-100022694D01*
X110076465Y-99916151D01*
X110125501Y-99797768D01*
X110135677Y-99746611D01*
X110150500Y-99672093D01*
X110150500Y-99397757D01*
X110170185Y-99330718D01*
X110222989Y-99284963D01*
X110292147Y-99275019D01*
X110298692Y-99276140D01*
X110421155Y-99300500D01*
X110421158Y-99300500D01*
X110578844Y-99300500D01*
X110578845Y-99300499D01*
X110733497Y-99269737D01*
X110879179Y-99209394D01*
X111010289Y-99121789D01*
X111121789Y-99010289D01*
X111209394Y-98879179D01*
X111269737Y-98733497D01*
X111300500Y-98578842D01*
X111300500Y-98421158D01*
X111300500Y-98421155D01*
X111300499Y-98421153D01*
X111284514Y-98340793D01*
X111269737Y-98266503D01*
X111237019Y-98187515D01*
X111209397Y-98120828D01*
X111209396Y-98120827D01*
X111209394Y-98120821D01*
X111171396Y-98063953D01*
X111150520Y-97997276D01*
X111150500Y-97995064D01*
X111150500Y-93320808D01*
X111170185Y-93253769D01*
X111186819Y-93233127D01*
X111733127Y-92686819D01*
X111794450Y-92653334D01*
X111820808Y-92650500D01*
X113139709Y-92650500D01*
X113206748Y-92670185D01*
X113240028Y-92701616D01*
X113308030Y-92795215D01*
X113452786Y-92939971D01*
X113607749Y-93052556D01*
X113618390Y-93060287D01*
X113709840Y-93106883D01*
X113711080Y-93107515D01*
X113761876Y-93155490D01*
X113778671Y-93223311D01*
X113756134Y-93289446D01*
X113711080Y-93328485D01*
X113618386Y-93375715D01*
X113452786Y-93496028D01*
X113308028Y-93640786D01*
X113187715Y-93806386D01*
X113094781Y-93988776D01*
X113031522Y-94183465D01*
X112999500Y-94385648D01*
X112999500Y-94590351D01*
X113031522Y-94792534D01*
X113094781Y-94987223D01*
X113187715Y-95169613D01*
X113308028Y-95335213D01*
X113452786Y-95479971D01*
X113575602Y-95569200D01*
X113618390Y-95600287D01*
X113709840Y-95646883D01*
X113711080Y-95647515D01*
X113761876Y-95695490D01*
X113778671Y-95763311D01*
X113756134Y-95829446D01*
X113711080Y-95868485D01*
X113618386Y-95915715D01*
X113452786Y-96036028D01*
X113308028Y-96180786D01*
X113187715Y-96346386D01*
X113094781Y-96528776D01*
X113031522Y-96723465D01*
X113005810Y-96885807D01*
X112999500Y-96925648D01*
X112999500Y-97130352D01*
X113003878Y-97157995D01*
X113031522Y-97332534D01*
X113094781Y-97527223D01*
X113187715Y-97709613D01*
X113308028Y-97875213D01*
X113452786Y-98019971D01*
X113591597Y-98120821D01*
X113618390Y-98140287D01*
X113709840Y-98186883D01*
X113711080Y-98187515D01*
X113761876Y-98235490D01*
X113778671Y-98303311D01*
X113756134Y-98369446D01*
X113711080Y-98408485D01*
X113618386Y-98455715D01*
X113452786Y-98576028D01*
X113308028Y-98720786D01*
X113187715Y-98886386D01*
X113094781Y-99068776D01*
X113031522Y-99263465D01*
X112999500Y-99465648D01*
X112999500Y-99670351D01*
X113031522Y-99872534D01*
X113094781Y-100067223D01*
X113187715Y-100249613D01*
X113308028Y-100415213D01*
X113452786Y-100559971D01*
X113618388Y-100680286D01*
X113618390Y-100680287D01*
X113704294Y-100724057D01*
X113755090Y-100772031D01*
X113771886Y-100839852D01*
X113749349Y-100905987D01*
X113706455Y-100943899D01*
X113640497Y-100979155D01*
X113571086Y-101025534D01*
X113571085Y-101025534D01*
X114170589Y-101625037D01*
X114107007Y-101642075D01*
X113992993Y-101707901D01*
X113899901Y-101800993D01*
X113834075Y-101915007D01*
X113817037Y-101978588D01*
X113217534Y-101379085D01*
X113217534Y-101379086D01*
X113171158Y-101448493D01*
X113124490Y-101535801D01*
X113064185Y-101681387D01*
X113035444Y-101776135D01*
X113004701Y-101930697D01*
X113004701Y-101930700D01*
X112995000Y-102029210D01*
X112995000Y-102186789D01*
X113004701Y-102285299D01*
X113004701Y-102285302D01*
X113035444Y-102439864D01*
X113064185Y-102534612D01*
X113124490Y-102680198D01*
X113171155Y-102767501D01*
X113171161Y-102767511D01*
X113217534Y-102836912D01*
X113817037Y-102237410D01*
X113834075Y-102300993D01*
X113899901Y-102415007D01*
X113992993Y-102508099D01*
X114107007Y-102573925D01*
X114170589Y-102590962D01*
X113571085Y-103190465D01*
X113640488Y-103236838D01*
X113640498Y-103236844D01*
X113706454Y-103272099D01*
X113756298Y-103321062D01*
X113771758Y-103389200D01*
X113747926Y-103454879D01*
X113704295Y-103491942D01*
X113618386Y-103535715D01*
X113452786Y-103656028D01*
X113308028Y-103800786D01*
X113187715Y-103966386D01*
X113094781Y-104148776D01*
X113031522Y-104343465D01*
X112999500Y-104545648D01*
X112999500Y-104750351D01*
X113031522Y-104952534D01*
X113094781Y-105147223D01*
X113187715Y-105329613D01*
X113308028Y-105495213D01*
X113452786Y-105639971D01*
X113607749Y-105752556D01*
X113618390Y-105760287D01*
X113709840Y-105806883D01*
X113711080Y-105807515D01*
X113761876Y-105855490D01*
X113778671Y-105923311D01*
X113756134Y-105989446D01*
X113711080Y-106028485D01*
X113618386Y-106075715D01*
X113452786Y-106196028D01*
X113308028Y-106340786D01*
X113187715Y-106506386D01*
X113094781Y-106688776D01*
X113031522Y-106883465D01*
X112999500Y-107085648D01*
X112999500Y-107290351D01*
X113031522Y-107492534D01*
X113094781Y-107687223D01*
X113187715Y-107869613D01*
X113308028Y-108035213D01*
X113452786Y-108179971D01*
X113549175Y-108250000D01*
X113618390Y-108300287D01*
X113705744Y-108344796D01*
X113711080Y-108347515D01*
X113761876Y-108395490D01*
X113778671Y-108463311D01*
X113756134Y-108529446D01*
X113711080Y-108568485D01*
X113618386Y-108615715D01*
X113452786Y-108736028D01*
X113308028Y-108880786D01*
X113187715Y-109046386D01*
X113094781Y-109228776D01*
X113031522Y-109423465D01*
X112999500Y-109625648D01*
X112999500Y-109830352D01*
X113002825Y-109851342D01*
X113031522Y-110032534D01*
X113094781Y-110227223D01*
X113187715Y-110409613D01*
X113308028Y-110575213D01*
X113452786Y-110719971D01*
X113607749Y-110832556D01*
X113618390Y-110840287D01*
X113709840Y-110886883D01*
X113711080Y-110887515D01*
X113761876Y-110935490D01*
X113778671Y-111003311D01*
X113756134Y-111069446D01*
X113711080Y-111108485D01*
X113618386Y-111155715D01*
X113452786Y-111276028D01*
X113308028Y-111420786D01*
X113187715Y-111586386D01*
X113094781Y-111768776D01*
X113031522Y-111963465D01*
X112999500Y-112165648D01*
X112999500Y-112370351D01*
X113031522Y-112572534D01*
X113094781Y-112767223D01*
X113158691Y-112892653D01*
X113171343Y-112917483D01*
X113187715Y-112949613D01*
X113308028Y-113115213D01*
X113452786Y-113259971D01*
X113618388Y-113380286D01*
X113618390Y-113380287D01*
X113704294Y-113424057D01*
X113755090Y-113472031D01*
X113771886Y-113539852D01*
X113749349Y-113605987D01*
X113706455Y-113643899D01*
X113640497Y-113679155D01*
X113571086Y-113725534D01*
X113571085Y-113725534D01*
X114170589Y-114325037D01*
X114107007Y-114342075D01*
X113992993Y-114407901D01*
X113899901Y-114500993D01*
X113834075Y-114615007D01*
X113817037Y-114678588D01*
X113217534Y-114079085D01*
X113217534Y-114079086D01*
X113171158Y-114148493D01*
X113124490Y-114235801D01*
X113064185Y-114381387D01*
X113035444Y-114476135D01*
X113004701Y-114630697D01*
X113004701Y-114630700D01*
X112995000Y-114729210D01*
X112995000Y-114886789D01*
X113004701Y-114985299D01*
X113004701Y-114985302D01*
X113035444Y-115139864D01*
X113064185Y-115234612D01*
X113124490Y-115380198D01*
X113171155Y-115467501D01*
X113171161Y-115467511D01*
X113217534Y-115536912D01*
X113817037Y-114937410D01*
X113834075Y-115000993D01*
X113899901Y-115115007D01*
X113992993Y-115208099D01*
X114107007Y-115273925D01*
X114170589Y-115290962D01*
X113571085Y-115890465D01*
X113640488Y-115936838D01*
X113640498Y-115936844D01*
X113706454Y-115972099D01*
X113756298Y-116021062D01*
X113771758Y-116089200D01*
X113747926Y-116154879D01*
X113704295Y-116191942D01*
X113618386Y-116235715D01*
X113452786Y-116356028D01*
X113308028Y-116500786D01*
X113187715Y-116666386D01*
X113094781Y-116848776D01*
X113031522Y-117043465D01*
X112999500Y-117245648D01*
X112999500Y-117450351D01*
X113031522Y-117652534D01*
X113094781Y-117847223D01*
X113187715Y-118029613D01*
X113308028Y-118195213D01*
X113452786Y-118339971D01*
X113607749Y-118452556D01*
X113618390Y-118460287D01*
X113709840Y-118506883D01*
X113711080Y-118507515D01*
X113761876Y-118555490D01*
X113778671Y-118623311D01*
X113756134Y-118689446D01*
X113711080Y-118728485D01*
X113618386Y-118775715D01*
X113452786Y-118896028D01*
X113308028Y-119040786D01*
X113187715Y-119206386D01*
X113094781Y-119388776D01*
X113031522Y-119583465D01*
X112999500Y-119785648D01*
X112999500Y-119990351D01*
X113031522Y-120192534D01*
X113094781Y-120387223D01*
X113187715Y-120569613D01*
X113308028Y-120735213D01*
X113452786Y-120879971D01*
X113607749Y-120992556D01*
X113618390Y-121000287D01*
X113731676Y-121058009D01*
X113800776Y-121093218D01*
X113800778Y-121093218D01*
X113800781Y-121093220D01*
X113905137Y-121127127D01*
X113995465Y-121156477D01*
X114096557Y-121172488D01*
X114197648Y-121188500D01*
X114197649Y-121188500D01*
X114402351Y-121188500D01*
X114402352Y-121188500D01*
X114604534Y-121156477D01*
X114799219Y-121093220D01*
X114981610Y-121000287D01*
X115074590Y-120932732D01*
X115147213Y-120879971D01*
X115147215Y-120879968D01*
X115147219Y-120879966D01*
X115291966Y-120735219D01*
X115291968Y-120735215D01*
X115291971Y-120735213D01*
X115362236Y-120638500D01*
X115412287Y-120569610D01*
X115505220Y-120387219D01*
X115568477Y-120192534D01*
X115600500Y-119990352D01*
X115600500Y-119785648D01*
X115568477Y-119583466D01*
X115505220Y-119388781D01*
X115505218Y-119388778D01*
X115505218Y-119388776D01*
X115471503Y-119322607D01*
X115412287Y-119206390D01*
X115358587Y-119132477D01*
X115291971Y-119040786D01*
X115147213Y-118896028D01*
X114981614Y-118775715D01*
X114927542Y-118748164D01*
X114888917Y-118728483D01*
X114838123Y-118680511D01*
X114821328Y-118612690D01*
X114843865Y-118546555D01*
X114888917Y-118507516D01*
X114981610Y-118460287D01*
X115064297Y-118400212D01*
X115147213Y-118339971D01*
X115147215Y-118339968D01*
X115147219Y-118339966D01*
X115291966Y-118195219D01*
X115291968Y-118195215D01*
X115291971Y-118195213D01*
X115382863Y-118070109D01*
X115412287Y-118029610D01*
X115505220Y-117847219D01*
X115568477Y-117652534D01*
X115600500Y-117450352D01*
X115600500Y-117245648D01*
X115568477Y-117043466D01*
X115505220Y-116848781D01*
X115505218Y-116848778D01*
X115505218Y-116848776D01*
X115471503Y-116782607D01*
X115412287Y-116666390D01*
X115404556Y-116655749D01*
X115291971Y-116500786D01*
X115147217Y-116356032D01*
X115070415Y-116300232D01*
X115027750Y-116244902D01*
X115021771Y-116175288D01*
X115054377Y-116113494D01*
X115112640Y-116079765D01*
X115133039Y-116074559D01*
X115189584Y-116051136D01*
X115189584Y-116051135D01*
X114429410Y-115290962D01*
X114492993Y-115273925D01*
X114607007Y-115208099D01*
X114700099Y-115115007D01*
X114765925Y-115000993D01*
X114782962Y-114937411D01*
X115543135Y-115697584D01*
X115543136Y-115697584D01*
X115566552Y-115641053D01*
X115584544Y-115590053D01*
X115604999Y-115447780D01*
X115605000Y-115447779D01*
X115605000Y-114168214D01*
X115602106Y-114114237D01*
X115602106Y-114114235D01*
X115566561Y-113974969D01*
X115566559Y-113974962D01*
X115543135Y-113918414D01*
X114782962Y-114678588D01*
X114765925Y-114615007D01*
X114700099Y-114500993D01*
X114607007Y-114407901D01*
X114492993Y-114342075D01*
X114429410Y-114325037D01*
X115189584Y-113564862D01*
X115133059Y-113541449D01*
X115133048Y-113541445D01*
X115104374Y-113531329D01*
X115047703Y-113490462D01*
X115022122Y-113425443D01*
X115035754Y-113356916D01*
X115072745Y-113314074D01*
X115147215Y-113259969D01*
X115147215Y-113259968D01*
X115147219Y-113259966D01*
X115291966Y-113115219D01*
X115291968Y-113115215D01*
X115291971Y-113115213D01*
X115344732Y-113042590D01*
X115412287Y-112949610D01*
X115505220Y-112767219D01*
X115568477Y-112572534D01*
X115600500Y-112370352D01*
X115600500Y-112165648D01*
X115587813Y-112085549D01*
X115568477Y-111963465D01*
X115505218Y-111768776D01*
X115466278Y-111692353D01*
X115412287Y-111586390D01*
X115404556Y-111575749D01*
X115291971Y-111420786D01*
X115147213Y-111276028D01*
X114981614Y-111155715D01*
X114975006Y-111152348D01*
X114888917Y-111108483D01*
X114838123Y-111060511D01*
X114821328Y-110992690D01*
X114843865Y-110926555D01*
X114888917Y-110887516D01*
X114981610Y-110840287D01*
X115002770Y-110824913D01*
X115147213Y-110719971D01*
X115147215Y-110719968D01*
X115147219Y-110719966D01*
X115291966Y-110575219D01*
X115291968Y-110575215D01*
X115291971Y-110575213D01*
X115344767Y-110502544D01*
X115412287Y-110409610D01*
X115505220Y-110227219D01*
X115568477Y-110032534D01*
X115600500Y-109830352D01*
X115600500Y-109625648D01*
X115568477Y-109423466D01*
X115561626Y-109402382D01*
X115512913Y-109252458D01*
X115505220Y-109228781D01*
X115505218Y-109228778D01*
X115505218Y-109228776D01*
X115445142Y-109110872D01*
X115412287Y-109046390D01*
X115404556Y-109035749D01*
X115291971Y-108880786D01*
X115147213Y-108736028D01*
X114981614Y-108615715D01*
X114968413Y-108608989D01*
X114888917Y-108568483D01*
X114838123Y-108520511D01*
X114821328Y-108452690D01*
X114843865Y-108386555D01*
X114888917Y-108347516D01*
X114981610Y-108300287D01*
X115050825Y-108250000D01*
X115147213Y-108179971D01*
X115147215Y-108179968D01*
X115147219Y-108179966D01*
X115291966Y-108035219D01*
X115291968Y-108035215D01*
X115291971Y-108035213D01*
X115377073Y-107918078D01*
X115412287Y-107869610D01*
X115505220Y-107687219D01*
X115568477Y-107492534D01*
X115600500Y-107290352D01*
X115600500Y-107085648D01*
X115568477Y-106883466D01*
X115566692Y-106877973D01*
X115505218Y-106688776D01*
X115452677Y-106585660D01*
X115412287Y-106506390D01*
X115404556Y-106495749D01*
X115291971Y-106340786D01*
X115147213Y-106196028D01*
X114981614Y-106075715D01*
X114973453Y-106071557D01*
X114888917Y-106028483D01*
X114838123Y-105980511D01*
X114821328Y-105912690D01*
X114843865Y-105846555D01*
X114888917Y-105807516D01*
X114981610Y-105760287D01*
X115064462Y-105700092D01*
X115147213Y-105639971D01*
X115147215Y-105639968D01*
X115147219Y-105639966D01*
X115291966Y-105495219D01*
X115291968Y-105495215D01*
X115291971Y-105495213D01*
X115350486Y-105414673D01*
X115412287Y-105329610D01*
X115505220Y-105147219D01*
X115568477Y-104952534D01*
X115600500Y-104750352D01*
X115600500Y-104545648D01*
X115568477Y-104343466D01*
X115554841Y-104301500D01*
X115509610Y-104162292D01*
X115505220Y-104148781D01*
X115505218Y-104148778D01*
X115505218Y-104148776D01*
X115459928Y-104059890D01*
X115412287Y-103966390D01*
X115383000Y-103926079D01*
X115291971Y-103800786D01*
X115147217Y-103656032D01*
X115070415Y-103600232D01*
X115027750Y-103544902D01*
X115021771Y-103475288D01*
X115054377Y-103413494D01*
X115112640Y-103379765D01*
X115133039Y-103374559D01*
X115189584Y-103351136D01*
X115189584Y-103351135D01*
X114429410Y-102590962D01*
X114492993Y-102573925D01*
X114607007Y-102508099D01*
X114700099Y-102415007D01*
X114765925Y-102300993D01*
X114782962Y-102237411D01*
X115543135Y-102997584D01*
X115543136Y-102997584D01*
X115566552Y-102941053D01*
X115584544Y-102890053D01*
X115604999Y-102747780D01*
X115605000Y-102747779D01*
X115605000Y-101468224D01*
X115604999Y-101468204D01*
X115602106Y-101414237D01*
X115602106Y-101414235D01*
X115566561Y-101274969D01*
X115566559Y-101274962D01*
X115543135Y-101218414D01*
X114782962Y-101978588D01*
X114765925Y-101915007D01*
X114700099Y-101800993D01*
X114607007Y-101707901D01*
X114492993Y-101642075D01*
X114429410Y-101625037D01*
X115189584Y-100864862D01*
X115133059Y-100841449D01*
X115133048Y-100841445D01*
X115104374Y-100831329D01*
X115047703Y-100790462D01*
X115022122Y-100725443D01*
X115035754Y-100656916D01*
X115072745Y-100614074D01*
X115147215Y-100559969D01*
X115147215Y-100559968D01*
X115147219Y-100559966D01*
X115291966Y-100415219D01*
X115291968Y-100415215D01*
X115291971Y-100415213D01*
X115344732Y-100342590D01*
X115412287Y-100249610D01*
X115505220Y-100067219D01*
X115568477Y-99872534D01*
X115600500Y-99670352D01*
X115600500Y-99465648D01*
X115571882Y-99284963D01*
X115568477Y-99263465D01*
X115522442Y-99121786D01*
X115505220Y-99068781D01*
X115505218Y-99068778D01*
X115505218Y-99068776D01*
X115471503Y-99002607D01*
X115412287Y-98886390D01*
X115404556Y-98875749D01*
X115291971Y-98720786D01*
X115147213Y-98576028D01*
X114981614Y-98455715D01*
X114949215Y-98439207D01*
X114888917Y-98408483D01*
X114838123Y-98360511D01*
X114821328Y-98292690D01*
X114843865Y-98226555D01*
X114888917Y-98187516D01*
X114981610Y-98140287D01*
X115044042Y-98094928D01*
X115147213Y-98019971D01*
X115147215Y-98019968D01*
X115147219Y-98019966D01*
X115291966Y-97875219D01*
X115291968Y-97875215D01*
X115291971Y-97875213D01*
X115344732Y-97802590D01*
X115412287Y-97709610D01*
X115505220Y-97527219D01*
X115568477Y-97332534D01*
X115600500Y-97130352D01*
X115600500Y-96925648D01*
X115594190Y-96885807D01*
X115568477Y-96723465D01*
X115505218Y-96528776D01*
X115439857Y-96400500D01*
X115412287Y-96346390D01*
X115404556Y-96335749D01*
X115291971Y-96180786D01*
X115147213Y-96036028D01*
X114981614Y-95915715D01*
X114949203Y-95899201D01*
X114888917Y-95868483D01*
X114838123Y-95820511D01*
X114821328Y-95752690D01*
X114843865Y-95686555D01*
X114888917Y-95647516D01*
X114981610Y-95600287D01*
X115091156Y-95520698D01*
X115147213Y-95479971D01*
X115147215Y-95479968D01*
X115147219Y-95479966D01*
X115291966Y-95335219D01*
X115291968Y-95335215D01*
X115291971Y-95335213D01*
X115356384Y-95246554D01*
X115412287Y-95169610D01*
X115505220Y-94987219D01*
X115568477Y-94792534D01*
X115600500Y-94590352D01*
X115600500Y-94385648D01*
X115585925Y-94293629D01*
X115568477Y-94183465D01*
X115520181Y-94034826D01*
X115505220Y-93988781D01*
X115505218Y-93988778D01*
X115505218Y-93988776D01*
X115454506Y-93889250D01*
X115412287Y-93806390D01*
X115404556Y-93795749D01*
X115291971Y-93640786D01*
X115147213Y-93496028D01*
X114981614Y-93375715D01*
X114949203Y-93359201D01*
X114888917Y-93328483D01*
X114838123Y-93280511D01*
X114821328Y-93212690D01*
X114843865Y-93146555D01*
X114888917Y-93107516D01*
X114981610Y-93060287D01*
X115091156Y-92980698D01*
X115147213Y-92939971D01*
X115147215Y-92939968D01*
X115147219Y-92939966D01*
X115291966Y-92795219D01*
X115291968Y-92795215D01*
X115291971Y-92795213D01*
X115359972Y-92701616D01*
X115412287Y-92629610D01*
X115505220Y-92447219D01*
X115568477Y-92252534D01*
X115600500Y-92050352D01*
X115600500Y-91845648D01*
X115576124Y-91691746D01*
X115568477Y-91643465D01*
X115529823Y-91524501D01*
X115505220Y-91448781D01*
X115505218Y-91448778D01*
X115505218Y-91448776D01*
X115455135Y-91350484D01*
X115412287Y-91266390D01*
X115365081Y-91201416D01*
X115291971Y-91100786D01*
X115147217Y-90956032D01*
X115070415Y-90900232D01*
X115027750Y-90844902D01*
X115021771Y-90775288D01*
X115054377Y-90713494D01*
X115112640Y-90679765D01*
X115133039Y-90674559D01*
X115189584Y-90651136D01*
X115189584Y-90651135D01*
X114429410Y-89890962D01*
X114492993Y-89873925D01*
X114607007Y-89808099D01*
X114700099Y-89715007D01*
X114765925Y-89600993D01*
X114782962Y-89537411D01*
X115543135Y-90297584D01*
X115543136Y-90297584D01*
X115566552Y-90241053D01*
X115584544Y-90190053D01*
X115604999Y-90047780D01*
X115605000Y-90047779D01*
X115605000Y-88768214D01*
X115602106Y-88714237D01*
X115602106Y-88714235D01*
X115566561Y-88574969D01*
X115566559Y-88574962D01*
X115543135Y-88518414D01*
X114782962Y-89278588D01*
X114765925Y-89215007D01*
X114700099Y-89100993D01*
X114607007Y-89007901D01*
X114492993Y-88942075D01*
X114429410Y-88925037D01*
X115189584Y-88164862D01*
X115133059Y-88141449D01*
X115133048Y-88141445D01*
X115104374Y-88131329D01*
X115047703Y-88090462D01*
X115022122Y-88025443D01*
X115035754Y-87956916D01*
X115072745Y-87914074D01*
X115147215Y-87859969D01*
X115147215Y-87859968D01*
X115147219Y-87859966D01*
X115291966Y-87715219D01*
X115291968Y-87715215D01*
X115291971Y-87715213D01*
X115372500Y-87604372D01*
X115412287Y-87549610D01*
X115505220Y-87367219D01*
X115568477Y-87172534D01*
X115600500Y-86970352D01*
X115600500Y-86765648D01*
X115568477Y-86563466D01*
X115559171Y-86534826D01*
X115505218Y-86368776D01*
X115455135Y-86270484D01*
X115412287Y-86186390D01*
X115347699Y-86097491D01*
X115291971Y-86020786D01*
X115147213Y-85876028D01*
X114981614Y-85755715D01*
X114975006Y-85752348D01*
X114888917Y-85708483D01*
X114838123Y-85660511D01*
X114821328Y-85592690D01*
X114843865Y-85526555D01*
X114888917Y-85487516D01*
X114981610Y-85440287D01*
X115025483Y-85408412D01*
X115147213Y-85319971D01*
X115147215Y-85319968D01*
X115147219Y-85319966D01*
X115291966Y-85175219D01*
X115291968Y-85175215D01*
X115291971Y-85175213D01*
X115344732Y-85102590D01*
X115412287Y-85009610D01*
X115505220Y-84827219D01*
X115568477Y-84632534D01*
X115600500Y-84430352D01*
X115600500Y-84225648D01*
X115568477Y-84023466D01*
X115505220Y-83828781D01*
X115505218Y-83828778D01*
X115505218Y-83828776D01*
X115457410Y-83734949D01*
X115412287Y-83646390D01*
X115358788Y-83572754D01*
X115291971Y-83480786D01*
X115147213Y-83336028D01*
X114981614Y-83215715D01*
X114975006Y-83212348D01*
X114888917Y-83168483D01*
X114838123Y-83120511D01*
X114821328Y-83052690D01*
X114843865Y-82986555D01*
X114888917Y-82947516D01*
X114981610Y-82900287D01*
X115087174Y-82823591D01*
X115147213Y-82779971D01*
X115147215Y-82779968D01*
X115147219Y-82779966D01*
X115291966Y-82635219D01*
X115291968Y-82635215D01*
X115291971Y-82635213D01*
X115366203Y-82533040D01*
X115412287Y-82469610D01*
X115505220Y-82287219D01*
X115568477Y-82092534D01*
X115600500Y-81890352D01*
X115600500Y-81685648D01*
X115600500Y-81685647D01*
X115568477Y-81483465D01*
X115505218Y-81288776D01*
X115464387Y-81208642D01*
X115412287Y-81106390D01*
X115404556Y-81095749D01*
X115291971Y-80940786D01*
X115147213Y-80796028D01*
X114981614Y-80675715D01*
X114975006Y-80672348D01*
X114888917Y-80628483D01*
X114838123Y-80580511D01*
X114821328Y-80512690D01*
X114843865Y-80446555D01*
X114888917Y-80407516D01*
X114981610Y-80360287D01*
X115015628Y-80335572D01*
X115147213Y-80239971D01*
X115147215Y-80239968D01*
X115147219Y-80239966D01*
X115291966Y-80095219D01*
X115291968Y-80095215D01*
X115291971Y-80095213D01*
X115344732Y-80022590D01*
X115412287Y-79929610D01*
X115505220Y-79747219D01*
X115568477Y-79552534D01*
X115600500Y-79350352D01*
X115600500Y-79145648D01*
X115568477Y-78943466D01*
X115568475Y-78943462D01*
X115568475Y-78943457D01*
X115557545Y-78909817D01*
X115555550Y-78839976D01*
X115591631Y-78780144D01*
X115654332Y-78749316D01*
X115675476Y-78747500D01*
X127926770Y-78747500D01*
X127993809Y-78767185D01*
X128014451Y-78783819D01*
X130753526Y-81522893D01*
X130787011Y-81584216D01*
X130788318Y-81629971D01*
X130779500Y-81685647D01*
X130779500Y-81890351D01*
X130811522Y-82092534D01*
X130874781Y-82287223D01*
X130938691Y-82412653D01*
X130960722Y-82455890D01*
X130967715Y-82469613D01*
X131088028Y-82635213D01*
X131232786Y-82779971D01*
X131387749Y-82892556D01*
X131398390Y-82900287D01*
X131489840Y-82946883D01*
X131491080Y-82947515D01*
X131541876Y-82995490D01*
X131558671Y-83063311D01*
X131536134Y-83129446D01*
X131491080Y-83168485D01*
X131398386Y-83215715D01*
X131232786Y-83336028D01*
X131088028Y-83480786D01*
X130967715Y-83646386D01*
X130874781Y-83828776D01*
X130811522Y-84023465D01*
X130786385Y-84182179D01*
X130779500Y-84225648D01*
X130779500Y-84430352D01*
X130783878Y-84457995D01*
X130811522Y-84632534D01*
X130874781Y-84827223D01*
X130967715Y-85009613D01*
X131088028Y-85175213D01*
X131232786Y-85319971D01*
X131354517Y-85408412D01*
X131398390Y-85440287D01*
X131489840Y-85486883D01*
X131491080Y-85487515D01*
X131541876Y-85535490D01*
X131558671Y-85603311D01*
X131536134Y-85669446D01*
X131491080Y-85708485D01*
X131398386Y-85755715D01*
X131232786Y-85876028D01*
X131088028Y-86020786D01*
X130967715Y-86186386D01*
X130874781Y-86368776D01*
X130811522Y-86563465D01*
X130779500Y-86765648D01*
X130779500Y-86970351D01*
X130811522Y-87172534D01*
X130874781Y-87367223D01*
X130967715Y-87549613D01*
X131088028Y-87715213D01*
X131232782Y-87859967D01*
X131232787Y-87859971D01*
X131309063Y-87915389D01*
X131351729Y-87970719D01*
X131357708Y-88040332D01*
X131325102Y-88102127D01*
X131266845Y-88135855D01*
X131246776Y-88140977D01*
X131246766Y-88140980D01*
X131173280Y-88171419D01*
X131173252Y-88171431D01*
X131124451Y-88194779D01*
X131124446Y-88194782D01*
X131009268Y-88281005D01*
X131009256Y-88281015D01*
X130953019Y-88337252D01*
X130916843Y-88377524D01*
X130916837Y-88377532D01*
X130843426Y-88501263D01*
X130812978Y-88574774D01*
X130812970Y-88574795D01*
X130794976Y-88625800D01*
X130794976Y-88625802D01*
X130775321Y-88762512D01*
X130774500Y-88768219D01*
X130774500Y-90047784D01*
X130777395Y-90101814D01*
X130777396Y-90101818D01*
X130812976Y-90241221D01*
X130812980Y-90241233D01*
X130843419Y-90314719D01*
X130843431Y-90314747D01*
X130866779Y-90363548D01*
X130866782Y-90363553D01*
X130894256Y-90400253D01*
X130953006Y-90478733D01*
X130953010Y-90478737D01*
X130953015Y-90478743D01*
X131009252Y-90534980D01*
X131009261Y-90534988D01*
X131009267Y-90534994D01*
X131041578Y-90564018D01*
X131049524Y-90571156D01*
X131049532Y-90571162D01*
X131173263Y-90644573D01*
X131173262Y-90644573D01*
X131180329Y-90647500D01*
X131246774Y-90675022D01*
X131262645Y-90680621D01*
X131275133Y-90685027D01*
X131331805Y-90725894D01*
X131357386Y-90790912D01*
X131343754Y-90859439D01*
X131306765Y-90902281D01*
X131232782Y-90956032D01*
X131088028Y-91100786D01*
X130967715Y-91266386D01*
X130874781Y-91448776D01*
X130811522Y-91643465D01*
X130779500Y-91845648D01*
X130779500Y-92050351D01*
X130811522Y-92252534D01*
X130874781Y-92447223D01*
X130967715Y-92629613D01*
X131088028Y-92795213D01*
X131232786Y-92939971D01*
X131387749Y-93052556D01*
X131398390Y-93060287D01*
X131489840Y-93106883D01*
X131491080Y-93107515D01*
X131541876Y-93155490D01*
X131558671Y-93223311D01*
X131536134Y-93289446D01*
X131491080Y-93328485D01*
X131398386Y-93375715D01*
X131232786Y-93496028D01*
X131088028Y-93640786D01*
X130967715Y-93806386D01*
X130874781Y-93988776D01*
X130811522Y-94183465D01*
X130779500Y-94385648D01*
X130779500Y-94590351D01*
X130811522Y-94792534D01*
X130874781Y-94987223D01*
X130967715Y-95169613D01*
X131088028Y-95335213D01*
X131232786Y-95479971D01*
X131355602Y-95569200D01*
X131398390Y-95600287D01*
X131489840Y-95646883D01*
X131491080Y-95647515D01*
X131541876Y-95695490D01*
X131558671Y-95763311D01*
X131536134Y-95829446D01*
X131491080Y-95868485D01*
X131398386Y-95915715D01*
X131232786Y-96036028D01*
X131088028Y-96180786D01*
X130967715Y-96346386D01*
X130874781Y-96528776D01*
X130811522Y-96723465D01*
X130785810Y-96885807D01*
X130779500Y-96925648D01*
X130779500Y-97130352D01*
X130783878Y-97157995D01*
X130811522Y-97332534D01*
X130874781Y-97527223D01*
X130967715Y-97709613D01*
X131088028Y-97875213D01*
X131232786Y-98019971D01*
X131371597Y-98120821D01*
X131398390Y-98140287D01*
X131489840Y-98186883D01*
X131491080Y-98187515D01*
X131541876Y-98235490D01*
X131558671Y-98303311D01*
X131536134Y-98369446D01*
X131491080Y-98408485D01*
X131398386Y-98455715D01*
X131232786Y-98576028D01*
X131088028Y-98720786D01*
X130967715Y-98886386D01*
X130874781Y-99068776D01*
X130811522Y-99263465D01*
X130779500Y-99465648D01*
X130779500Y-99670351D01*
X130811522Y-99872534D01*
X130874781Y-100067223D01*
X130967715Y-100249613D01*
X131088028Y-100415213D01*
X131232782Y-100559967D01*
X131232787Y-100559971D01*
X131309583Y-100615767D01*
X131352249Y-100671097D01*
X131358228Y-100740710D01*
X131325622Y-100802505D01*
X131267365Y-100836233D01*
X131246973Y-100841437D01*
X131246962Y-100841441D01*
X131190415Y-100864863D01*
X131950589Y-101625037D01*
X131887007Y-101642075D01*
X131772993Y-101707901D01*
X131679901Y-101800993D01*
X131614075Y-101915007D01*
X131597037Y-101978589D01*
X130836863Y-101218415D01*
X130836862Y-101218415D01*
X130813446Y-101274947D01*
X130813431Y-101274987D01*
X130795457Y-101325939D01*
X130795455Y-101325946D01*
X130775000Y-101468219D01*
X130775000Y-102747785D01*
X130777893Y-102801762D01*
X130777893Y-102801764D01*
X130813438Y-102941030D01*
X130813442Y-102941043D01*
X130836862Y-102997584D01*
X131597037Y-102237410D01*
X131614075Y-102300993D01*
X131679901Y-102415007D01*
X131772993Y-102508099D01*
X131887007Y-102573925D01*
X131950589Y-102590962D01*
X131190414Y-103351135D01*
X131246960Y-103374557D01*
X131246986Y-103374567D01*
X131275621Y-103384669D01*
X131332294Y-103425534D01*
X131357876Y-103490552D01*
X131344246Y-103559080D01*
X131307256Y-103601924D01*
X131232782Y-103656032D01*
X131088028Y-103800786D01*
X130967715Y-103966386D01*
X130874781Y-104148776D01*
X130811522Y-104343465D01*
X130779500Y-104545648D01*
X130779500Y-104750351D01*
X130811522Y-104952534D01*
X130874781Y-105147223D01*
X130967715Y-105329613D01*
X131088028Y-105495213D01*
X131232786Y-105639971D01*
X131387749Y-105752556D01*
X131398390Y-105760287D01*
X131489840Y-105806883D01*
X131491080Y-105807515D01*
X131541876Y-105855490D01*
X131558671Y-105923311D01*
X131536134Y-105989446D01*
X131491080Y-106028485D01*
X131398386Y-106075715D01*
X131232786Y-106196028D01*
X131088028Y-106340786D01*
X130967715Y-106506386D01*
X130874781Y-106688776D01*
X130811522Y-106883465D01*
X130779500Y-107085648D01*
X130779500Y-107290351D01*
X130811522Y-107492534D01*
X130874781Y-107687223D01*
X130967715Y-107869613D01*
X131088028Y-108035213D01*
X131232786Y-108179971D01*
X131329175Y-108250000D01*
X131398390Y-108300287D01*
X131485744Y-108344796D01*
X131491080Y-108347515D01*
X131541876Y-108395490D01*
X131558671Y-108463311D01*
X131536134Y-108529446D01*
X131491080Y-108568485D01*
X131398386Y-108615715D01*
X131232786Y-108736028D01*
X131088028Y-108880786D01*
X130967715Y-109046386D01*
X130874781Y-109228776D01*
X130811522Y-109423465D01*
X130779500Y-109625648D01*
X130779500Y-109830352D01*
X130782825Y-109851342D01*
X130811522Y-110032534D01*
X130874781Y-110227223D01*
X130967715Y-110409613D01*
X131088028Y-110575213D01*
X131232786Y-110719971D01*
X131387749Y-110832556D01*
X131398390Y-110840287D01*
X131489840Y-110886883D01*
X131491080Y-110887515D01*
X131541876Y-110935490D01*
X131558671Y-111003311D01*
X131536134Y-111069446D01*
X131491080Y-111108485D01*
X131398386Y-111155715D01*
X131232786Y-111276028D01*
X131088028Y-111420786D01*
X130967715Y-111586386D01*
X130874781Y-111768776D01*
X130811522Y-111963465D01*
X130779500Y-112165648D01*
X130779500Y-112370351D01*
X130811522Y-112572534D01*
X130874781Y-112767223D01*
X130938691Y-112892653D01*
X130951343Y-112917483D01*
X130967715Y-112949613D01*
X131088028Y-113115213D01*
X131232782Y-113259967D01*
X131232787Y-113259971D01*
X131309583Y-113315767D01*
X131352249Y-113371097D01*
X131358228Y-113440710D01*
X131325622Y-113502505D01*
X131267365Y-113536233D01*
X131246973Y-113541437D01*
X131246962Y-113541441D01*
X131190415Y-113564863D01*
X131950589Y-114325037D01*
X131887007Y-114342075D01*
X131772993Y-114407901D01*
X131679901Y-114500993D01*
X131614075Y-114615007D01*
X131597037Y-114678589D01*
X130836863Y-113918415D01*
X130836862Y-113918415D01*
X130813446Y-113974947D01*
X130813431Y-113974987D01*
X130795457Y-114025939D01*
X130795455Y-114025946D01*
X130775000Y-114168219D01*
X130775000Y-115447785D01*
X130777893Y-115501762D01*
X130777893Y-115501764D01*
X130813438Y-115641030D01*
X130813442Y-115641043D01*
X130836862Y-115697584D01*
X131597037Y-114937410D01*
X131614075Y-115000993D01*
X131679901Y-115115007D01*
X131772993Y-115208099D01*
X131887007Y-115273925D01*
X131950589Y-115290962D01*
X131190414Y-116051135D01*
X131246960Y-116074557D01*
X131246986Y-116074567D01*
X131275621Y-116084669D01*
X131332294Y-116125534D01*
X131357876Y-116190552D01*
X131344246Y-116259080D01*
X131307256Y-116301924D01*
X131232782Y-116356032D01*
X131088028Y-116500786D01*
X130967715Y-116666386D01*
X130874781Y-116848776D01*
X130811522Y-117043465D01*
X130779500Y-117245648D01*
X130779500Y-117450351D01*
X130811522Y-117652534D01*
X130874781Y-117847223D01*
X130967715Y-118029613D01*
X131088028Y-118195213D01*
X131232786Y-118339971D01*
X131387749Y-118452556D01*
X131398390Y-118460287D01*
X131489840Y-118506883D01*
X131491080Y-118507515D01*
X131541876Y-118555490D01*
X131558671Y-118623311D01*
X131536134Y-118689446D01*
X131491080Y-118728485D01*
X131398386Y-118775715D01*
X131232786Y-118896028D01*
X131088028Y-119040786D01*
X130967715Y-119206386D01*
X130874781Y-119388776D01*
X130811522Y-119583465D01*
X130779500Y-119785648D01*
X130779500Y-119990351D01*
X130811522Y-120192534D01*
X130874781Y-120387223D01*
X130967715Y-120569613D01*
X131088028Y-120735213D01*
X131232786Y-120879971D01*
X131387749Y-120992556D01*
X131398390Y-121000287D01*
X131511676Y-121058009D01*
X131580776Y-121093218D01*
X131580778Y-121093218D01*
X131580781Y-121093220D01*
X131685137Y-121127127D01*
X131775465Y-121156477D01*
X131876557Y-121172488D01*
X131977648Y-121188500D01*
X131977649Y-121188500D01*
X132182351Y-121188500D01*
X132182352Y-121188500D01*
X132384534Y-121156477D01*
X132579219Y-121093220D01*
X132761610Y-121000287D01*
X132854590Y-120932732D01*
X132927213Y-120879971D01*
X132927215Y-120879968D01*
X132927219Y-120879966D01*
X133071966Y-120735219D01*
X133074650Y-120731524D01*
X133105100Y-120689615D01*
X133160429Y-120646949D01*
X133205418Y-120638500D01*
X133685920Y-120638500D01*
X133783462Y-120619096D01*
X133830913Y-120609658D01*
X133967495Y-120553084D01*
X134016729Y-120520186D01*
X134090416Y-120470952D01*
X137243159Y-117318209D01*
X140299500Y-117318209D01*
X140299500Y-117681790D01*
X140335137Y-118043630D01*
X140406064Y-118400212D01*
X140406067Y-118400223D01*
X140511614Y-118748165D01*
X140650754Y-119084078D01*
X140650756Y-119084083D01*
X140822140Y-119404720D01*
X140822151Y-119404738D01*
X141024140Y-119707035D01*
X141024150Y-119707049D01*
X141254807Y-119988106D01*
X141511893Y-120245192D01*
X141511898Y-120245196D01*
X141511899Y-120245197D01*
X141792956Y-120475854D01*
X142095268Y-120677853D01*
X142095277Y-120677858D01*
X142095279Y-120677859D01*
X142415916Y-120849243D01*
X142415918Y-120849243D01*
X142415924Y-120849247D01*
X142751836Y-120988386D01*
X143099767Y-121093930D01*
X143099773Y-121093931D01*
X143099776Y-121093932D01*
X143099787Y-121093935D01*
X143414214Y-121156477D01*
X143456369Y-121164862D01*
X143818206Y-121200500D01*
X143818209Y-121200500D01*
X144181791Y-121200500D01*
X144181794Y-121200500D01*
X144543631Y-121164862D01*
X144613045Y-121151054D01*
X144900212Y-121093935D01*
X144900223Y-121093932D01*
X144900223Y-121093931D01*
X144900233Y-121093930D01*
X145248164Y-120988386D01*
X145584076Y-120849247D01*
X145904732Y-120677853D01*
X146207044Y-120475854D01*
X146488101Y-120245197D01*
X146745197Y-119988101D01*
X146975854Y-119707044D01*
X147177853Y-119404732D01*
X147349247Y-119084076D01*
X147488386Y-118748164D01*
X147593930Y-118400233D01*
X147593932Y-118400223D01*
X147593935Y-118400212D01*
X147664862Y-118043630D01*
X147679781Y-117892157D01*
X147700500Y-117681794D01*
X147700500Y-117318206D01*
X147664862Y-116956369D01*
X147664198Y-116953032D01*
X147593935Y-116599787D01*
X147593932Y-116599776D01*
X147593931Y-116599773D01*
X147593930Y-116599767D01*
X147488386Y-116251836D01*
X147349247Y-115915924D01*
X147330154Y-115880204D01*
X147177859Y-115595279D01*
X147177858Y-115595277D01*
X147177853Y-115595268D01*
X146975854Y-115292956D01*
X146745197Y-115011899D01*
X146745196Y-115011898D01*
X146745192Y-115011893D01*
X146488106Y-114754807D01*
X146207049Y-114524150D01*
X146207048Y-114524149D01*
X146207044Y-114524146D01*
X145904732Y-114322147D01*
X145904727Y-114322144D01*
X145904720Y-114322140D01*
X145584083Y-114150756D01*
X145584078Y-114150754D01*
X145578619Y-114148493D01*
X145411054Y-114079085D01*
X145248165Y-114011614D01*
X144900223Y-113906067D01*
X144900212Y-113906064D01*
X144543630Y-113835137D01*
X144271111Y-113808296D01*
X144181794Y-113799500D01*
X143818206Y-113799500D01*
X143735679Y-113807628D01*
X143456369Y-113835137D01*
X143099787Y-113906064D01*
X143099776Y-113906067D01*
X142751834Y-114011614D01*
X142415921Y-114150754D01*
X142415916Y-114150756D01*
X142095279Y-114322140D01*
X142095261Y-114322151D01*
X141792964Y-114524140D01*
X141792950Y-114524150D01*
X141511893Y-114754807D01*
X141254807Y-115011893D01*
X141024150Y-115292950D01*
X141024140Y-115292964D01*
X140822151Y-115595261D01*
X140822140Y-115595279D01*
X140650756Y-115915916D01*
X140650754Y-115915921D01*
X140511614Y-116251834D01*
X140406067Y-116599776D01*
X140406064Y-116599787D01*
X140335137Y-116956369D01*
X140299500Y-117318209D01*
X137243159Y-117318209D01*
X138302288Y-116259080D01*
X142442333Y-112119034D01*
X142469260Y-112104330D01*
X142495079Y-112087738D01*
X142501279Y-112086846D01*
X142503656Y-112085549D01*
X142530014Y-112082715D01*
X142583755Y-112082715D01*
X142650794Y-112102400D01*
X142696549Y-112155204D01*
X142707755Y-112206715D01*
X142707755Y-112367891D01*
X142747541Y-112535760D01*
X142766009Y-112572534D01*
X142824970Y-112689934D01*
X142880418Y-112758000D01*
X142889137Y-112768703D01*
X143312237Y-113191801D01*
X143312245Y-113191807D01*
X143312250Y-113191812D01*
X143391003Y-113255967D01*
X143391006Y-113255969D01*
X143391011Y-113255973D01*
X143545180Y-113333399D01*
X143713049Y-113373185D01*
X143713052Y-113373185D01*
X143885570Y-113373185D01*
X144053434Y-113333400D01*
X144053435Y-113333399D01*
X144053437Y-113333399D01*
X144207607Y-113255973D01*
X144286380Y-113191803D01*
X144691801Y-112786380D01*
X144755973Y-112707607D01*
X144833399Y-112553437D01*
X144873185Y-112385569D01*
X144873185Y-112320484D01*
X144892870Y-112253445D01*
X144909504Y-112232803D01*
X146582948Y-110559359D01*
X146582951Y-110559356D01*
X146665084Y-110436435D01*
X146721658Y-110299853D01*
X146750500Y-110154858D01*
X146750500Y-110007023D01*
X146750500Y-103926082D01*
X146750500Y-103926079D01*
X146721659Y-103781092D01*
X146721658Y-103781091D01*
X146721658Y-103781087D01*
X146700727Y-103730554D01*
X146665087Y-103644511D01*
X146665080Y-103644498D01*
X146582952Y-103521585D01*
X146536655Y-103475288D01*
X146478416Y-103417049D01*
X146058951Y-102997584D01*
X145544411Y-102483043D01*
X145510926Y-102421720D01*
X145511522Y-102366399D01*
X145512313Y-102363098D01*
X145512321Y-102363076D01*
X145550500Y-102122027D01*
X145550500Y-101877973D01*
X145512321Y-101636924D01*
X145436904Y-101404815D01*
X145326106Y-101187361D01*
X145224076Y-101046928D01*
X145182660Y-100989923D01*
X145182656Y-100989918D01*
X145010081Y-100817343D01*
X145010076Y-100817339D01*
X144812642Y-100673896D01*
X144812641Y-100673895D01*
X144812639Y-100673894D01*
X144595185Y-100563096D01*
X144363076Y-100487679D01*
X144363074Y-100487678D01*
X144363072Y-100487678D01*
X144194769Y-100461021D01*
X144122027Y-100449500D01*
X143877973Y-100449500D01*
X143822093Y-100458350D01*
X143636927Y-100487678D01*
X143636926Y-100487678D01*
X143486818Y-100536451D01*
X143416976Y-100538446D01*
X143357144Y-100502365D01*
X143326316Y-100439664D01*
X143324500Y-100418520D01*
X143324500Y-92812499D01*
X143750000Y-92812499D01*
X143786640Y-92812499D01*
X143786654Y-92812498D01*
X143887652Y-92802180D01*
X144051300Y-92747953D01*
X144051311Y-92747948D01*
X144198034Y-92657447D01*
X144198038Y-92657444D01*
X144319944Y-92535538D01*
X144319947Y-92535534D01*
X144410448Y-92388811D01*
X144410453Y-92388800D01*
X144464680Y-92225152D01*
X144474999Y-92124154D01*
X144475000Y-92124141D01*
X144475000Y-92075000D01*
X143750000Y-92075000D01*
X143750000Y-92812499D01*
X143324500Y-92812499D01*
X143324500Y-91949000D01*
X143344185Y-91881961D01*
X143396989Y-91836206D01*
X143448500Y-91825000D01*
X143500000Y-91825000D01*
X143500000Y-91699000D01*
X143519685Y-91631961D01*
X143572489Y-91586206D01*
X143624000Y-91575000D01*
X144474999Y-91575000D01*
X144474999Y-91525860D01*
X144474998Y-91525845D01*
X144464680Y-91424847D01*
X144410453Y-91261199D01*
X144410448Y-91261188D01*
X144319947Y-91114465D01*
X144319944Y-91114461D01*
X144206017Y-91000534D01*
X144172532Y-90939211D01*
X144177516Y-90869519D01*
X144206013Y-90825176D01*
X144320340Y-90710850D01*
X144410908Y-90564016D01*
X144465174Y-90400253D01*
X144475500Y-90299177D01*
X144475499Y-89700824D01*
X144470691Y-89653760D01*
X144465174Y-89599747D01*
X144460386Y-89585299D01*
X144410908Y-89435984D01*
X144320340Y-89289150D01*
X144198350Y-89167160D01*
X144051516Y-89076592D01*
X143887753Y-89022326D01*
X143887751Y-89022325D01*
X143786678Y-89012000D01*
X143213330Y-89012000D01*
X143213312Y-89012001D01*
X143112247Y-89022325D01*
X142948484Y-89076592D01*
X142948481Y-89076593D01*
X142801648Y-89167161D01*
X142679661Y-89289148D01*
X142679660Y-89289150D01*
X142678766Y-89290598D01*
X142677895Y-89291382D01*
X142675179Y-89294817D01*
X142674592Y-89294352D01*
X142626820Y-89337321D01*
X142573229Y-89349500D01*
X142250528Y-89349500D01*
X142183489Y-89329815D01*
X142140043Y-89281794D01*
X142130050Y-89262182D01*
X142005109Y-89090213D01*
X141854786Y-88939890D01*
X141682820Y-88814951D01*
X141682115Y-88814591D01*
X141674054Y-88810485D01*
X141623259Y-88762512D01*
X141606463Y-88694692D01*
X141628999Y-88628556D01*
X141674054Y-88589515D01*
X141682816Y-88585051D01*
X141704789Y-88569086D01*
X141854786Y-88460109D01*
X141854788Y-88460106D01*
X141854792Y-88460104D01*
X142005104Y-88309792D01*
X142005106Y-88309788D01*
X142005109Y-88309786D01*
X142130048Y-88137820D01*
X142130047Y-88137820D01*
X142130051Y-88137816D01*
X142226557Y-87948412D01*
X142292246Y-87746243D01*
X142325500Y-87536287D01*
X142325500Y-87323713D01*
X142292246Y-87113757D01*
X142226557Y-86911588D01*
X142130051Y-86722184D01*
X142130049Y-86722181D01*
X142130048Y-86722179D01*
X142005109Y-86550213D01*
X141854786Y-86399890D01*
X141682820Y-86274951D01*
X141682115Y-86274591D01*
X141674054Y-86270485D01*
X141623259Y-86222512D01*
X141606463Y-86154692D01*
X141628999Y-86088556D01*
X141674054Y-86049515D01*
X141682816Y-86045051D01*
X141716221Y-86020781D01*
X141854786Y-85920109D01*
X141854788Y-85920106D01*
X141854792Y-85920104D01*
X142005104Y-85769792D01*
X142005106Y-85769788D01*
X142005109Y-85769786D01*
X142130048Y-85597820D01*
X142130047Y-85597820D01*
X142130051Y-85597816D01*
X142226557Y-85408412D01*
X142292246Y-85206243D01*
X142325500Y-84996287D01*
X142325500Y-84783713D01*
X142292246Y-84573757D01*
X142226557Y-84371588D01*
X142130051Y-84182184D01*
X142130049Y-84182181D01*
X142130048Y-84182179D01*
X142005109Y-84010213D01*
X141854786Y-83859890D01*
X141682820Y-83734951D01*
X141493414Y-83638444D01*
X141493413Y-83638443D01*
X141493412Y-83638443D01*
X141291243Y-83572754D01*
X141291241Y-83572753D01*
X141291240Y-83572753D01*
X141129957Y-83547208D01*
X141081287Y-83539500D01*
X140868713Y-83539500D01*
X140820042Y-83547208D01*
X140658760Y-83572753D01*
X140456585Y-83638444D01*
X140267179Y-83734951D01*
X140095213Y-83859890D01*
X139944890Y-84010213D01*
X139819951Y-84182179D01*
X139723444Y-84371585D01*
X139657753Y-84573760D01*
X139624500Y-84783713D01*
X139624500Y-84996286D01*
X139657753Y-85206239D01*
X139723444Y-85408414D01*
X139819951Y-85597820D01*
X139944890Y-85769786D01*
X140095213Y-85920109D01*
X140267182Y-86045050D01*
X140275946Y-86049516D01*
X140326742Y-86097491D01*
X140343536Y-86165312D01*
X140320998Y-86231447D01*
X140275946Y-86270484D01*
X140267182Y-86274949D01*
X140095213Y-86399890D01*
X139944894Y-86550209D01*
X139944890Y-86550214D01*
X139875093Y-86646283D01*
X139819764Y-86688949D01*
X139750150Y-86694928D01*
X139709679Y-86678937D01*
X139564022Y-86589095D01*
X139564017Y-86589093D01*
X139564016Y-86589092D01*
X139400253Y-86534826D01*
X139400251Y-86534825D01*
X139299178Y-86524500D01*
X138700830Y-86524500D01*
X138700812Y-86524501D01*
X138599747Y-86534825D01*
X138435984Y-86589092D01*
X138435981Y-86589093D01*
X138289148Y-86679661D01*
X138175181Y-86793629D01*
X138113858Y-86827114D01*
X138044166Y-86822130D01*
X137999819Y-86793629D01*
X137885851Y-86679661D01*
X137885850Y-86679660D01*
X137751568Y-86596834D01*
X137739018Y-86589093D01*
X137739013Y-86589091D01*
X137737569Y-86588612D01*
X137575253Y-86534826D01*
X137575251Y-86534825D01*
X137474178Y-86524500D01*
X136875830Y-86524500D01*
X136875812Y-86524501D01*
X136774747Y-86534825D01*
X136610984Y-86589092D01*
X136610981Y-86589093D01*
X136464148Y-86679661D01*
X136342161Y-86801648D01*
X136251593Y-86948481D01*
X136251591Y-86948486D01*
X136224219Y-87031088D01*
X136197326Y-87112247D01*
X136197326Y-87112248D01*
X136197325Y-87112248D01*
X136187000Y-87213315D01*
X136187000Y-87516691D01*
X136167315Y-87583730D01*
X136150681Y-87604372D01*
X133994727Y-89760325D01*
X133994724Y-89760328D01*
X133955981Y-89818311D01*
X133955982Y-89818312D01*
X133923534Y-89866874D01*
X133874499Y-89985255D01*
X133874497Y-89985261D01*
X133849500Y-90110928D01*
X133849500Y-101679191D01*
X133829815Y-101746230D01*
X133813181Y-101766872D01*
X133584807Y-101995245D01*
X133523484Y-102028730D01*
X133453792Y-102023746D01*
X133397859Y-101981874D01*
X133375508Y-101931754D01*
X133344554Y-101776135D01*
X133315814Y-101681387D01*
X133255509Y-101535801D01*
X133208844Y-101448498D01*
X133208838Y-101448488D01*
X133162465Y-101379085D01*
X132562962Y-101978589D01*
X132545925Y-101915007D01*
X132480099Y-101800993D01*
X132387007Y-101707901D01*
X132272993Y-101642075D01*
X132209410Y-101625037D01*
X132808912Y-101025534D01*
X132739511Y-100979161D01*
X132739500Y-100979155D01*
X132673545Y-100943900D01*
X132623701Y-100894937D01*
X132608241Y-100826799D01*
X132632073Y-100761119D01*
X132675702Y-100724059D01*
X132761610Y-100680287D01*
X132852745Y-100614074D01*
X132927213Y-100559971D01*
X132927215Y-100559968D01*
X132927219Y-100559966D01*
X133071966Y-100415219D01*
X133071968Y-100415215D01*
X133071971Y-100415213D01*
X133124732Y-100342590D01*
X133192287Y-100249610D01*
X133285220Y-100067219D01*
X133348477Y-99872534D01*
X133380500Y-99670352D01*
X133380500Y-99465648D01*
X133351882Y-99284963D01*
X133348477Y-99263465D01*
X133302442Y-99121786D01*
X133285220Y-99068781D01*
X133285218Y-99068778D01*
X133285218Y-99068776D01*
X133251503Y-99002607D01*
X133192287Y-98886390D01*
X133184556Y-98875749D01*
X133071971Y-98720786D01*
X132927213Y-98576028D01*
X132761614Y-98455715D01*
X132729215Y-98439207D01*
X132668917Y-98408483D01*
X132618123Y-98360511D01*
X132601328Y-98292690D01*
X132623865Y-98226555D01*
X132668917Y-98187516D01*
X132761610Y-98140287D01*
X132824042Y-98094928D01*
X132927213Y-98019971D01*
X132927215Y-98019968D01*
X132927219Y-98019966D01*
X133071966Y-97875219D01*
X133071968Y-97875215D01*
X133071971Y-97875213D01*
X133124732Y-97802590D01*
X133192287Y-97709610D01*
X133285220Y-97527219D01*
X133348477Y-97332534D01*
X133380500Y-97130352D01*
X133380500Y-96925648D01*
X133374190Y-96885807D01*
X133348477Y-96723465D01*
X133285218Y-96528776D01*
X133219857Y-96400500D01*
X133192287Y-96346390D01*
X133184556Y-96335749D01*
X133071971Y-96180786D01*
X132927213Y-96036028D01*
X132761614Y-95915715D01*
X132729203Y-95899201D01*
X132668917Y-95868483D01*
X132618123Y-95820511D01*
X132601328Y-95752690D01*
X132623865Y-95686555D01*
X132668917Y-95647516D01*
X132761610Y-95600287D01*
X132871156Y-95520698D01*
X132927213Y-95479971D01*
X132927215Y-95479968D01*
X132927219Y-95479966D01*
X133071966Y-95335219D01*
X133071968Y-95335215D01*
X133071971Y-95335213D01*
X133136384Y-95246554D01*
X133192287Y-95169610D01*
X133285220Y-94987219D01*
X133348477Y-94792534D01*
X133380500Y-94590352D01*
X133380500Y-94385648D01*
X133365925Y-94293629D01*
X133348477Y-94183465D01*
X133300181Y-94034826D01*
X133285220Y-93988781D01*
X133285218Y-93988778D01*
X133285218Y-93988776D01*
X133234506Y-93889250D01*
X133192287Y-93806390D01*
X133184556Y-93795749D01*
X133071971Y-93640786D01*
X132927213Y-93496028D01*
X132761614Y-93375715D01*
X132729203Y-93359201D01*
X132668917Y-93328483D01*
X132618123Y-93280511D01*
X132601328Y-93212690D01*
X132623865Y-93146555D01*
X132668917Y-93107516D01*
X132761610Y-93060287D01*
X132871156Y-92980698D01*
X132927213Y-92939971D01*
X132927215Y-92939968D01*
X132927219Y-92939966D01*
X133071966Y-92795219D01*
X133071968Y-92795215D01*
X133071971Y-92795213D01*
X133139972Y-92701616D01*
X133192287Y-92629610D01*
X133285220Y-92447219D01*
X133348477Y-92252534D01*
X133380500Y-92050352D01*
X133380500Y-91845648D01*
X133356124Y-91691746D01*
X133348477Y-91643465D01*
X133309823Y-91524501D01*
X133285220Y-91448781D01*
X133285218Y-91448778D01*
X133285218Y-91448776D01*
X133235135Y-91350484D01*
X133192287Y-91266390D01*
X133145081Y-91201416D01*
X133071971Y-91100786D01*
X132927213Y-90956028D01*
X132761613Y-90835715D01*
X132761612Y-90835714D01*
X132761610Y-90835713D01*
X132708947Y-90808880D01*
X132676245Y-90792217D01*
X132625449Y-90744242D01*
X132608654Y-90676421D01*
X132631192Y-90610286D01*
X132674083Y-90572376D01*
X132739783Y-90537259D01*
X132870811Y-90449709D01*
X132947412Y-90386843D01*
X133058843Y-90275412D01*
X133121709Y-90198811D01*
X133209259Y-90067783D01*
X133255972Y-89980389D01*
X133316278Y-89834798D01*
X133345044Y-89739968D01*
X133375787Y-89585410D01*
X133385500Y-89486793D01*
X133385500Y-89329207D01*
X133375787Y-89230590D01*
X133345044Y-89076032D01*
X133316278Y-88981202D01*
X133255972Y-88835611D01*
X133242542Y-88810486D01*
X133209265Y-88748228D01*
X133209263Y-88748226D01*
X133209259Y-88748217D01*
X133189365Y-88718443D01*
X133121721Y-88617206D01*
X133121712Y-88617194D01*
X133121709Y-88617189D01*
X133058843Y-88540588D01*
X132947412Y-88429157D01*
X132870811Y-88366291D01*
X132870804Y-88366286D01*
X132870793Y-88366278D01*
X132739799Y-88278751D01*
X132739788Y-88278744D01*
X132739783Y-88278741D01*
X132696345Y-88255523D01*
X132674086Y-88243625D01*
X132624242Y-88194662D01*
X132608782Y-88126524D01*
X132632614Y-88060845D01*
X132676246Y-88023782D01*
X132761610Y-87980287D01*
X132852745Y-87914074D01*
X132927213Y-87859971D01*
X132927215Y-87859968D01*
X132927219Y-87859966D01*
X133071966Y-87715219D01*
X133071968Y-87715215D01*
X133071971Y-87715213D01*
X133152500Y-87604372D01*
X133192287Y-87549610D01*
X133285220Y-87367219D01*
X133348477Y-87172534D01*
X133380500Y-86970352D01*
X133380500Y-86765648D01*
X133348477Y-86563466D01*
X133339171Y-86534826D01*
X133285218Y-86368776D01*
X133235135Y-86270484D01*
X133192287Y-86186390D01*
X133127699Y-86097491D01*
X133071971Y-86020786D01*
X132927213Y-85876028D01*
X132761614Y-85755715D01*
X132755006Y-85752348D01*
X132668917Y-85708483D01*
X132618123Y-85660511D01*
X132601328Y-85592690D01*
X132623865Y-85526555D01*
X132668917Y-85487516D01*
X132761610Y-85440287D01*
X132805483Y-85408412D01*
X132927213Y-85319971D01*
X132927215Y-85319968D01*
X132927219Y-85319966D01*
X133071966Y-85175219D01*
X133071968Y-85175215D01*
X133071971Y-85175213D01*
X133124732Y-85102590D01*
X133192287Y-85009610D01*
X133285220Y-84827219D01*
X133348477Y-84632534D01*
X133380500Y-84430352D01*
X133380500Y-84225648D01*
X133348477Y-84023466D01*
X133285220Y-83828781D01*
X133285218Y-83828778D01*
X133285218Y-83828776D01*
X133237410Y-83734949D01*
X133192287Y-83646390D01*
X133138788Y-83572754D01*
X133071971Y-83480786D01*
X132927213Y-83336028D01*
X132761614Y-83215715D01*
X132755006Y-83212348D01*
X132668917Y-83168483D01*
X132618123Y-83120511D01*
X132601328Y-83052690D01*
X132623865Y-82986555D01*
X132668917Y-82947516D01*
X132761610Y-82900287D01*
X132867174Y-82823591D01*
X132927213Y-82779971D01*
X132927215Y-82779968D01*
X132927219Y-82779966D01*
X133071966Y-82635219D01*
X133071968Y-82635215D01*
X133071971Y-82635213D01*
X133146203Y-82533040D01*
X133192287Y-82469610D01*
X133285220Y-82287219D01*
X133348477Y-82092534D01*
X133380500Y-81890352D01*
X133380500Y-81685648D01*
X133380500Y-81685647D01*
X133348477Y-81483465D01*
X133285218Y-81288776D01*
X133244387Y-81208642D01*
X133192287Y-81106390D01*
X133184556Y-81095749D01*
X133071971Y-80940786D01*
X132927213Y-80796028D01*
X132761614Y-80675715D01*
X132755006Y-80672348D01*
X132668917Y-80628483D01*
X132618123Y-80580511D01*
X132601328Y-80512690D01*
X132623865Y-80446555D01*
X132668917Y-80407516D01*
X132761610Y-80360287D01*
X132795628Y-80335572D01*
X132927213Y-80239971D01*
X132927215Y-80239968D01*
X132927219Y-80239966D01*
X133071966Y-80095219D01*
X133071968Y-80095215D01*
X133071971Y-80095213D01*
X133124732Y-80022590D01*
X133192287Y-79929610D01*
X133285220Y-79747219D01*
X133348477Y-79552534D01*
X133380500Y-79350352D01*
X133380500Y-79145648D01*
X133348477Y-78943466D01*
X133348476Y-78943464D01*
X133314851Y-78839976D01*
X133285220Y-78748781D01*
X133285218Y-78748778D01*
X133285218Y-78748776D01*
X133249078Y-78677848D01*
X133192287Y-78566390D01*
X133184556Y-78555749D01*
X133071971Y-78400786D01*
X132927213Y-78256028D01*
X132761614Y-78135715D01*
X132753410Y-78131535D01*
X132675703Y-78091941D01*
X132624908Y-78043968D01*
X132608113Y-77976147D01*
X132630650Y-77910012D01*
X132673546Y-77872099D01*
X132739503Y-77836843D01*
X132739515Y-77836837D01*
X132808913Y-77790465D01*
X132209410Y-77190962D01*
X132272993Y-77173925D01*
X132387007Y-77108099D01*
X132480099Y-77015007D01*
X132545925Y-76900993D01*
X132562962Y-76837410D01*
X133162465Y-77436913D01*
X133208837Y-77367515D01*
X133208838Y-77367511D01*
X133255509Y-77280198D01*
X133315814Y-77134612D01*
X133344555Y-77039864D01*
X133375298Y-76885302D01*
X133375298Y-76885299D01*
X133385000Y-76786789D01*
X133385000Y-76629210D01*
X133375298Y-76530700D01*
X133375298Y-76530697D01*
X133344555Y-76376135D01*
X133315814Y-76281387D01*
X133255509Y-76135801D01*
X133208844Y-76048498D01*
X133208838Y-76048488D01*
X133162465Y-75979085D01*
X132562962Y-76578588D01*
X132545925Y-76515007D01*
X132480099Y-76400993D01*
X132387007Y-76307901D01*
X132272993Y-76242075D01*
X132209410Y-76225037D01*
X132808912Y-75625534D01*
X132739511Y-75579161D01*
X132739500Y-75579155D01*
X132673545Y-75543900D01*
X132669152Y-75539584D01*
X132663272Y-75537754D01*
X132644519Y-75515387D01*
X132623701Y-75494937D01*
X132622338Y-75488931D01*
X132618382Y-75484213D01*
X132614698Y-75455259D01*
X132608241Y-75426799D01*
X132610341Y-75421010D01*
X132609564Y-75414902D01*
X132622117Y-75388556D01*
X132632073Y-75361119D01*
X132637644Y-75355970D01*
X132639619Y-75351826D01*
X132654615Y-75340285D01*
X132666665Y-75329150D01*
X132671067Y-75326420D01*
X132687182Y-75318209D01*
X140299500Y-75318209D01*
X140299500Y-75681790D01*
X140335137Y-76043630D01*
X140406064Y-76400212D01*
X140406067Y-76400223D01*
X140511614Y-76748165D01*
X140650754Y-77084078D01*
X140650756Y-77084083D01*
X140822140Y-77404720D01*
X140822151Y-77404738D01*
X141024140Y-77707035D01*
X141024150Y-77707049D01*
X141254807Y-77988106D01*
X141511893Y-78245192D01*
X141511898Y-78245196D01*
X141511899Y-78245197D01*
X141792956Y-78475854D01*
X142095268Y-78677853D01*
X142095277Y-78677858D01*
X142095279Y-78677859D01*
X142415916Y-78849243D01*
X142415918Y-78849243D01*
X142415924Y-78849247D01*
X142751836Y-78988386D01*
X143099767Y-79093930D01*
X143099773Y-79093931D01*
X143099776Y-79093932D01*
X143099787Y-79093935D01*
X143456369Y-79164862D01*
X143818206Y-79200500D01*
X143818209Y-79200500D01*
X144181791Y-79200500D01*
X144181794Y-79200500D01*
X144543631Y-79164862D01*
X144631344Y-79147415D01*
X144900212Y-79093935D01*
X144900223Y-79093932D01*
X144900223Y-79093931D01*
X144900233Y-79093930D01*
X145248164Y-78988386D01*
X145584076Y-78849247D01*
X145904732Y-78677853D01*
X146207044Y-78475854D01*
X146488101Y-78245197D01*
X146745197Y-77988101D01*
X146975854Y-77707044D01*
X147177853Y-77404732D01*
X147349247Y-77084076D01*
X147488386Y-76748164D01*
X147593930Y-76400233D01*
X147593932Y-76400223D01*
X147593935Y-76400212D01*
X147664862Y-76043630D01*
X147670027Y-75991187D01*
X147700500Y-75681794D01*
X147700500Y-75318206D01*
X147664862Y-74956369D01*
X147657009Y-74916887D01*
X147593935Y-74599787D01*
X147593932Y-74599776D01*
X147593931Y-74599773D01*
X147593930Y-74599767D01*
X147488386Y-74251836D01*
X147349247Y-73915924D01*
X147336127Y-73891379D01*
X147177859Y-73595279D01*
X147177858Y-73595277D01*
X147177853Y-73595268D01*
X146975854Y-73292956D01*
X146745197Y-73011899D01*
X146745196Y-73011898D01*
X146745192Y-73011893D01*
X146488106Y-72754807D01*
X146207049Y-72524150D01*
X146207048Y-72524149D01*
X146207044Y-72524146D01*
X145904732Y-72322147D01*
X145904727Y-72322144D01*
X145904720Y-72322140D01*
X145584083Y-72150756D01*
X145584078Y-72150754D01*
X145248165Y-72011614D01*
X144900223Y-71906067D01*
X144900212Y-71906064D01*
X144543630Y-71835137D01*
X144271111Y-71808296D01*
X144181794Y-71799500D01*
X143818206Y-71799500D01*
X143735679Y-71807628D01*
X143456369Y-71835137D01*
X143099787Y-71906064D01*
X143099776Y-71906067D01*
X142751834Y-72011614D01*
X142415921Y-72150754D01*
X142415916Y-72150756D01*
X142095279Y-72322140D01*
X142095261Y-72322151D01*
X141792964Y-72524140D01*
X141792950Y-72524150D01*
X141511893Y-72754807D01*
X141254807Y-73011893D01*
X141024150Y-73292950D01*
X141024140Y-73292964D01*
X140822151Y-73595261D01*
X140822140Y-73595279D01*
X140650756Y-73915916D01*
X140650754Y-73915921D01*
X140511614Y-74251834D01*
X140406067Y-74599776D01*
X140406064Y-74599787D01*
X140335137Y-74956369D01*
X140299500Y-75318209D01*
X132687182Y-75318209D01*
X132761610Y-75280287D01*
X132855367Y-75212169D01*
X132855372Y-75212166D01*
X132927212Y-75159971D01*
X132927210Y-75159971D01*
X132927219Y-75159966D01*
X133071966Y-75015219D01*
X133071968Y-75015215D01*
X133071971Y-75015213D01*
X133143408Y-74916887D01*
X133192287Y-74849610D01*
X133285220Y-74667219D01*
X133348477Y-74472534D01*
X133380500Y-74270352D01*
X133380500Y-74065648D01*
X133356785Y-73915921D01*
X133348477Y-73863465D01*
X133319127Y-73773137D01*
X133285220Y-73668781D01*
X133285218Y-73668778D01*
X133285218Y-73668776D01*
X133200679Y-73502861D01*
X133192287Y-73486390D01*
X133179926Y-73469376D01*
X133071971Y-73320786D01*
X132927213Y-73176028D01*
X132761614Y-73055715D01*
X132755006Y-73052348D01*
X132668917Y-73008483D01*
X132618123Y-72960511D01*
X132601328Y-72892690D01*
X132623865Y-72826555D01*
X132668917Y-72787516D01*
X132761610Y-72740287D01*
X132782770Y-72724913D01*
X132927213Y-72619971D01*
X132927215Y-72619968D01*
X132927219Y-72619966D01*
X133071966Y-72475219D01*
X133071968Y-72475215D01*
X133071971Y-72475213D01*
X133159170Y-72355192D01*
X133192287Y-72309610D01*
X133285220Y-72127219D01*
X133348477Y-71932534D01*
X133380500Y-71730352D01*
X133380500Y-71525648D01*
X133367213Y-71441757D01*
X133348477Y-71323465D01*
X133302120Y-71180794D01*
X133296278Y-71162816D01*
X133294284Y-71092978D01*
X133330364Y-71033145D01*
X133393065Y-71002316D01*
X133414210Y-71000500D01*
X143934108Y-71000500D01*
X143997294Y-71000500D01*
X144002702Y-71000617D01*
X144386771Y-71017386D01*
X144397506Y-71018326D01*
X144775971Y-71068152D01*
X144786597Y-71070025D01*
X145159284Y-71152648D01*
X145169710Y-71155442D01*
X145533765Y-71270227D01*
X145543911Y-71273920D01*
X145896578Y-71420000D01*
X145906369Y-71424566D01*
X145939399Y-71441760D01*
X146244942Y-71600816D01*
X146254310Y-71606224D01*
X146576244Y-71811318D01*
X146585105Y-71817523D01*
X146887930Y-72049889D01*
X146896217Y-72056843D01*
X147177635Y-72314715D01*
X147185284Y-72322364D01*
X147443156Y-72603782D01*
X147450110Y-72612069D01*
X147682476Y-72914894D01*
X147688681Y-72923755D01*
X147893775Y-73245689D01*
X147899183Y-73255057D01*
X148075430Y-73593623D01*
X148080002Y-73603427D01*
X148226075Y-73956078D01*
X148229775Y-73966244D01*
X148344554Y-74330278D01*
X148347354Y-74340727D01*
X148429971Y-74713389D01*
X148431849Y-74724042D01*
X148481671Y-75102473D01*
X148482614Y-75113249D01*
X148499382Y-75497297D01*
X148499500Y-75502706D01*
X148499500Y-117497293D01*
X148499382Y-117502702D01*
X148482614Y-117886750D01*
X148481671Y-117897526D01*
X148431849Y-118275957D01*
X148429971Y-118286610D01*
X148347354Y-118659272D01*
X148344554Y-118669721D01*
X148229775Y-119033755D01*
X148226075Y-119043921D01*
X148080002Y-119396572D01*
X148075430Y-119406376D01*
X147899183Y-119744942D01*
X147893775Y-119754310D01*
X147688681Y-120076244D01*
X147682476Y-120085105D01*
X147450110Y-120387930D01*
X147443156Y-120396217D01*
X147185284Y-120677635D01*
X147177635Y-120685284D01*
X146896217Y-120943156D01*
X146887930Y-120950110D01*
X146585105Y-121182476D01*
X146576244Y-121188681D01*
X146254310Y-121393775D01*
X146244942Y-121399183D01*
X145906376Y-121575430D01*
X145896572Y-121580002D01*
X145543921Y-121726075D01*
X145533755Y-121729775D01*
X145169721Y-121844554D01*
X145159272Y-121847354D01*
X144786610Y-121929971D01*
X144775957Y-121931849D01*
X144397526Y-121981671D01*
X144386750Y-121982614D01*
X144002703Y-121999382D01*
X143997294Y-121999500D01*
X125647862Y-121999500D01*
X125580823Y-121979815D01*
X125535068Y-121927011D01*
X125525124Y-121857853D01*
X125554149Y-121794297D01*
X125560181Y-121787819D01*
X125590000Y-121758000D01*
X125590000Y-120808597D01*
X125609685Y-120741558D01*
X125637941Y-120710664D01*
X130290000Y-117097895D01*
X130290000Y-112758000D01*
X116090000Y-112758000D01*
X116090000Y-117097895D01*
X120742057Y-120710663D01*
X120782931Y-120767327D01*
X120790000Y-120808597D01*
X120790000Y-121758000D01*
X120819819Y-121787819D01*
X120853304Y-121849142D01*
X120848320Y-121918834D01*
X120806448Y-121974767D01*
X120740984Y-121999184D01*
X120732138Y-121999500D01*
X92002706Y-121999500D01*
X91997297Y-121999382D01*
X91613249Y-121982614D01*
X91602473Y-121981671D01*
X91224042Y-121931849D01*
X91213389Y-121929971D01*
X90840727Y-121847354D01*
X90830278Y-121844554D01*
X90466244Y-121729775D01*
X90456078Y-121726075D01*
X90103427Y-121580002D01*
X90093623Y-121575430D01*
X89755057Y-121399183D01*
X89745689Y-121393775D01*
X89423755Y-121188681D01*
X89414894Y-121182476D01*
X89112069Y-120950110D01*
X89103782Y-120943156D01*
X88822364Y-120685284D01*
X88814715Y-120677635D01*
X88556843Y-120396217D01*
X88549889Y-120387930D01*
X88317523Y-120085105D01*
X88311318Y-120076244D01*
X88106224Y-119754310D01*
X88100816Y-119744942D01*
X88081090Y-119707049D01*
X87924566Y-119406369D01*
X87919997Y-119396572D01*
X87841221Y-119206390D01*
X87773920Y-119043911D01*
X87770224Y-119033755D01*
X87726801Y-118896034D01*
X87655442Y-118669710D01*
X87652648Y-118659284D01*
X87570025Y-118286597D01*
X87568152Y-118275971D01*
X87518326Y-117897506D01*
X87517386Y-117886771D01*
X87500618Y-117502702D01*
X87500500Y-117497293D01*
X87500500Y-117318209D01*
X88299500Y-117318209D01*
X88299500Y-117681790D01*
X88335137Y-118043630D01*
X88406064Y-118400212D01*
X88406067Y-118400223D01*
X88511614Y-118748165D01*
X88650754Y-119084078D01*
X88650756Y-119084083D01*
X88822140Y-119404720D01*
X88822151Y-119404738D01*
X89024140Y-119707035D01*
X89024150Y-119707049D01*
X89254807Y-119988106D01*
X89511893Y-120245192D01*
X89511898Y-120245196D01*
X89511899Y-120245197D01*
X89792956Y-120475854D01*
X90095268Y-120677853D01*
X90095277Y-120677858D01*
X90095279Y-120677859D01*
X90415916Y-120849243D01*
X90415918Y-120849243D01*
X90415924Y-120849247D01*
X90751836Y-120988386D01*
X91099767Y-121093930D01*
X91099773Y-121093931D01*
X91099776Y-121093932D01*
X91099787Y-121093935D01*
X91414214Y-121156477D01*
X91456369Y-121164862D01*
X91818206Y-121200500D01*
X91818209Y-121200500D01*
X92181791Y-121200500D01*
X92181794Y-121200500D01*
X92543631Y-121164862D01*
X92613045Y-121151054D01*
X92900212Y-121093935D01*
X92900223Y-121093932D01*
X92900223Y-121093931D01*
X92900233Y-121093930D01*
X93248164Y-120988386D01*
X93584076Y-120849247D01*
X93904732Y-120677853D01*
X94207044Y-120475854D01*
X94488101Y-120245197D01*
X94745197Y-119988101D01*
X94975854Y-119707044D01*
X95177853Y-119404732D01*
X95349247Y-119084076D01*
X95488386Y-118748164D01*
X95593930Y-118400233D01*
X95593932Y-118400223D01*
X95593935Y-118400212D01*
X95664862Y-118043630D01*
X95679781Y-117892157D01*
X95700500Y-117681794D01*
X95700500Y-117318206D01*
X95664862Y-116956369D01*
X95618594Y-116723760D01*
X95593935Y-116599787D01*
X95593932Y-116599776D01*
X95593931Y-116599773D01*
X95593930Y-116599767D01*
X95488386Y-116251836D01*
X95349247Y-115915924D01*
X95330154Y-115880204D01*
X95177859Y-115595279D01*
X95177858Y-115595277D01*
X95177853Y-115595268D01*
X94975854Y-115292956D01*
X94745197Y-115011899D01*
X94745196Y-115011898D01*
X94745192Y-115011893D01*
X94488106Y-114754807D01*
X94207049Y-114524150D01*
X94207048Y-114524149D01*
X94207044Y-114524146D01*
X93904732Y-114322147D01*
X93904727Y-114322144D01*
X93904720Y-114322140D01*
X93584083Y-114150756D01*
X93584078Y-114150754D01*
X93578619Y-114148493D01*
X93411054Y-114079085D01*
X93248165Y-114011614D01*
X92900223Y-113906067D01*
X92900212Y-113906064D01*
X92543630Y-113835137D01*
X92271111Y-113808296D01*
X92181794Y-113799500D01*
X91818206Y-113799500D01*
X91735679Y-113807628D01*
X91456369Y-113835137D01*
X91099787Y-113906064D01*
X91099776Y-113906067D01*
X90751834Y-114011614D01*
X90415921Y-114150754D01*
X90415916Y-114150756D01*
X90095279Y-114322140D01*
X90095261Y-114322151D01*
X89792964Y-114524140D01*
X89792950Y-114524150D01*
X89511893Y-114754807D01*
X89254807Y-115011893D01*
X89024150Y-115292950D01*
X89024140Y-115292964D01*
X88822151Y-115595261D01*
X88822140Y-115595279D01*
X88650756Y-115915916D01*
X88650754Y-115915921D01*
X88511614Y-116251834D01*
X88406067Y-116599776D01*
X88406064Y-116599787D01*
X88335137Y-116956369D01*
X88299500Y-117318209D01*
X87500500Y-117318209D01*
X87500500Y-111062135D01*
X102149500Y-111062135D01*
X102149500Y-112857870D01*
X102149501Y-112857876D01*
X102155908Y-112917483D01*
X102206202Y-113052328D01*
X102206206Y-113052335D01*
X102292452Y-113167544D01*
X102292455Y-113167547D01*
X102407664Y-113253793D01*
X102407671Y-113253797D01*
X102424225Y-113259971D01*
X102542517Y-113304091D01*
X102602127Y-113310500D01*
X102612685Y-113310499D01*
X102679723Y-113330179D01*
X102700372Y-113346818D01*
X103370591Y-114017037D01*
X103307007Y-114034075D01*
X103192993Y-114099901D01*
X103099901Y-114192993D01*
X103034075Y-114307007D01*
X103017037Y-114370591D01*
X102384728Y-113738282D01*
X102384727Y-113738282D01*
X102345380Y-113792439D01*
X102248904Y-113981782D01*
X102183242Y-114183869D01*
X102183242Y-114183872D01*
X102150000Y-114393753D01*
X102150000Y-114606246D01*
X102183242Y-114816127D01*
X102183242Y-114816130D01*
X102248904Y-115018217D01*
X102345375Y-115207550D01*
X102384728Y-115261716D01*
X103017037Y-114629408D01*
X103034075Y-114692993D01*
X103099901Y-114807007D01*
X103192993Y-114900099D01*
X103307007Y-114965925D01*
X103370590Y-114982962D01*
X102738282Y-115615269D01*
X102738282Y-115615270D01*
X102792452Y-115654626D01*
X102792451Y-115654626D01*
X102801495Y-115659234D01*
X102852292Y-115707208D01*
X102869087Y-115775029D01*
X102846550Y-115841164D01*
X102801499Y-115880202D01*
X102792182Y-115884949D01*
X102620213Y-116009890D01*
X102469890Y-116160213D01*
X102344951Y-116332179D01*
X102248444Y-116521585D01*
X102182753Y-116723760D01*
X102149500Y-116933713D01*
X102149500Y-117146286D01*
X102182753Y-117356239D01*
X102248444Y-117558414D01*
X102344951Y-117747820D01*
X102469890Y-117919786D01*
X102620213Y-118070109D01*
X102792179Y-118195048D01*
X102792181Y-118195049D01*
X102792184Y-118195051D01*
X102981588Y-118291557D01*
X103183757Y-118357246D01*
X103393713Y-118390500D01*
X103393714Y-118390500D01*
X103606286Y-118390500D01*
X103606287Y-118390500D01*
X103816243Y-118357246D01*
X104018412Y-118291557D01*
X104207816Y-118195051D01*
X104304000Y-118125170D01*
X104379786Y-118070109D01*
X104379788Y-118070106D01*
X104379792Y-118070104D01*
X104530104Y-117919792D01*
X104530106Y-117919788D01*
X104530109Y-117919786D01*
X104655048Y-117747820D01*
X104655047Y-117747820D01*
X104655051Y-117747816D01*
X104751557Y-117558412D01*
X104817246Y-117356243D01*
X104850500Y-117146287D01*
X104850500Y-116933713D01*
X104817246Y-116723757D01*
X104751557Y-116521588D01*
X104655051Y-116332184D01*
X104655049Y-116332181D01*
X104655048Y-116332179D01*
X104530109Y-116160213D01*
X104379786Y-116009890D01*
X104207817Y-115884949D01*
X104198504Y-115880204D01*
X104147707Y-115832230D01*
X104130912Y-115764409D01*
X104153449Y-115698274D01*
X104198507Y-115659232D01*
X104207555Y-115654622D01*
X104261716Y-115615270D01*
X104261717Y-115615270D01*
X103629408Y-114982962D01*
X103692993Y-114965925D01*
X103807007Y-114900099D01*
X103900099Y-114807007D01*
X103965925Y-114692993D01*
X103982962Y-114629409D01*
X104615270Y-115261717D01*
X104615270Y-115261716D01*
X104654622Y-115207554D01*
X104751095Y-115018217D01*
X104816757Y-114816130D01*
X104816757Y-114816127D01*
X104834079Y-114706765D01*
X104850000Y-114606245D01*
X104850000Y-114393753D01*
X104816757Y-114183872D01*
X104816757Y-114183869D01*
X104751095Y-113981782D01*
X104654624Y-113792449D01*
X104615270Y-113738282D01*
X104615269Y-113738282D01*
X103982962Y-114370590D01*
X103965925Y-114307007D01*
X103900099Y-114192993D01*
X103807007Y-114099901D01*
X103692993Y-114034075D01*
X103629409Y-114017037D01*
X104299627Y-113346818D01*
X104360950Y-113313333D01*
X104387307Y-113310499D01*
X104397872Y-113310499D01*
X104457483Y-113304091D01*
X104592331Y-113253796D01*
X104707546Y-113167546D01*
X104793796Y-113052331D01*
X104844091Y-112917483D01*
X104850500Y-112857873D01*
X104850499Y-111062128D01*
X104844091Y-111002517D01*
X104842974Y-110999523D01*
X104793797Y-110867671D01*
X104793793Y-110867664D01*
X104707547Y-110752455D01*
X104707544Y-110752452D01*
X104592335Y-110666206D01*
X104592328Y-110666202D01*
X104457482Y-110615908D01*
X104457483Y-110615908D01*
X104397883Y-110609501D01*
X104397881Y-110609500D01*
X104397873Y-110609500D01*
X104397864Y-110609500D01*
X102602129Y-110609500D01*
X102602123Y-110609501D01*
X102542516Y-110615908D01*
X102407671Y-110666202D01*
X102407664Y-110666206D01*
X102292455Y-110752452D01*
X102292452Y-110752455D01*
X102206206Y-110867664D01*
X102206202Y-110867671D01*
X102155908Y-111002517D01*
X102149674Y-111060511D01*
X102149501Y-111062123D01*
X102149500Y-111062135D01*
X87500500Y-111062135D01*
X87500500Y-75502706D01*
X87500618Y-75497297D01*
X87502034Y-75464863D01*
X87508437Y-75318209D01*
X88299500Y-75318209D01*
X88299500Y-75681790D01*
X88335137Y-76043630D01*
X88406064Y-76400212D01*
X88406067Y-76400223D01*
X88511614Y-76748165D01*
X88650754Y-77084078D01*
X88650756Y-77084083D01*
X88822140Y-77404720D01*
X88822151Y-77404738D01*
X89024140Y-77707035D01*
X89024150Y-77707049D01*
X89254807Y-77988106D01*
X89511893Y-78245192D01*
X89511898Y-78245196D01*
X89511899Y-78245197D01*
X89792956Y-78475854D01*
X90095268Y-78677853D01*
X90095277Y-78677858D01*
X90095279Y-78677859D01*
X90415916Y-78849243D01*
X90415918Y-78849243D01*
X90415924Y-78849247D01*
X90751836Y-78988386D01*
X91099767Y-79093930D01*
X91099773Y-79093931D01*
X91099776Y-79093932D01*
X91099787Y-79093935D01*
X91456369Y-79164862D01*
X91818206Y-79200500D01*
X91818209Y-79200500D01*
X92181791Y-79200500D01*
X92181794Y-79200500D01*
X92543631Y-79164862D01*
X92631344Y-79147415D01*
X92900212Y-79093935D01*
X92900223Y-79093932D01*
X92900223Y-79093931D01*
X92900233Y-79093930D01*
X93248164Y-78988386D01*
X93584076Y-78849247D01*
X93904732Y-78677853D01*
X94207044Y-78475854D01*
X94488101Y-78245197D01*
X94745197Y-77988101D01*
X94975854Y-77707044D01*
X95177853Y-77404732D01*
X95349247Y-77084076D01*
X95488386Y-76748164D01*
X95593930Y-76400233D01*
X95593932Y-76400223D01*
X95593935Y-76400212D01*
X95664862Y-76043630D01*
X95670027Y-75991187D01*
X95700500Y-75681794D01*
X95700500Y-75318206D01*
X95664862Y-74956369D01*
X95657009Y-74916887D01*
X95593935Y-74599787D01*
X95593932Y-74599776D01*
X95593931Y-74599773D01*
X95593930Y-74599767D01*
X95488386Y-74251836D01*
X95349247Y-73915924D01*
X95336127Y-73891379D01*
X95177859Y-73595279D01*
X95177858Y-73595277D01*
X95177853Y-73595268D01*
X94975854Y-73292956D01*
X94745197Y-73011899D01*
X94745196Y-73011898D01*
X94745192Y-73011893D01*
X94488106Y-72754807D01*
X94207049Y-72524150D01*
X94207048Y-72524149D01*
X94207044Y-72524146D01*
X93904732Y-72322147D01*
X93904727Y-72322144D01*
X93904720Y-72322140D01*
X93584083Y-72150756D01*
X93584078Y-72150754D01*
X93248165Y-72011614D01*
X92900223Y-71906067D01*
X92900212Y-71906064D01*
X92543630Y-71835137D01*
X92271111Y-71808296D01*
X92181794Y-71799500D01*
X91818206Y-71799500D01*
X91735679Y-71807628D01*
X91456369Y-71835137D01*
X91099787Y-71906064D01*
X91099776Y-71906067D01*
X90751834Y-72011614D01*
X90415921Y-72150754D01*
X90415916Y-72150756D01*
X90095279Y-72322140D01*
X90095261Y-72322151D01*
X89792964Y-72524140D01*
X89792950Y-72524150D01*
X89511893Y-72754807D01*
X89254807Y-73011893D01*
X89024150Y-73292950D01*
X89024140Y-73292964D01*
X88822151Y-73595261D01*
X88822140Y-73595279D01*
X88650756Y-73915916D01*
X88650754Y-73915921D01*
X88511614Y-74251834D01*
X88406067Y-74599776D01*
X88406064Y-74599787D01*
X88335137Y-74956369D01*
X88299500Y-75318209D01*
X87508437Y-75318209D01*
X87517386Y-75113228D01*
X87518326Y-75102495D01*
X87568152Y-74724025D01*
X87570025Y-74713405D01*
X87652649Y-74340709D01*
X87655440Y-74330295D01*
X87770230Y-73966227D01*
X87773917Y-73956095D01*
X87920003Y-73603412D01*
X87924561Y-73593638D01*
X88100822Y-73255045D01*
X88106217Y-73245700D01*
X88311325Y-72923744D01*
X88317515Y-72914905D01*
X88549896Y-72612060D01*
X88556834Y-72603791D01*
X88814726Y-72322352D01*
X88822352Y-72314726D01*
X89103791Y-72056834D01*
X89112060Y-72049896D01*
X89414905Y-71817515D01*
X89423744Y-71811325D01*
X89745700Y-71606217D01*
X89755045Y-71600822D01*
X90093638Y-71424561D01*
X90103412Y-71420003D01*
X90456095Y-71273917D01*
X90466227Y-71270230D01*
X90830295Y-71155440D01*
X90840709Y-71152649D01*
X91213405Y-71070025D01*
X91224025Y-71068152D01*
X91602495Y-71018326D01*
X91613226Y-71017386D01*
X91997297Y-71000617D01*
X92002706Y-71000500D01*
X92065892Y-71000500D01*
X112875500Y-71000500D01*
X112942539Y-71020185D01*
G37*
%TD.AperFunction*%
%TA.AperFunction,Conductor*%
G36*
X138878364Y-106162781D02*
G01*
X138934297Y-106204653D01*
X138958714Y-106270117D01*
X138959030Y-106278963D01*
X138959030Y-107511425D01*
X138939345Y-107578464D01*
X138922712Y-107599105D01*
X138808202Y-107713616D01*
X138808193Y-107713626D01*
X138744026Y-107792394D01*
X138666599Y-107946565D01*
X138626815Y-108114429D01*
X138626815Y-108114431D01*
X138626815Y-108286951D01*
X138666601Y-108454820D01*
X138723685Y-108568485D01*
X138744030Y-108608994D01*
X138808187Y-108687751D01*
X138808197Y-108687763D01*
X139231297Y-109110861D01*
X139231305Y-109110867D01*
X139231310Y-109110872D01*
X139310063Y-109175027D01*
X139310066Y-109175029D01*
X139310071Y-109175033D01*
X139464240Y-109252459D01*
X139632109Y-109292245D01*
X139632112Y-109292245D01*
X139793285Y-109292245D01*
X139801970Y-109294795D01*
X139810932Y-109293507D01*
X139834972Y-109304485D01*
X139860324Y-109311930D01*
X139866251Y-109318770D01*
X139874488Y-109322532D01*
X139888777Y-109344766D01*
X139906079Y-109364734D01*
X139908366Y-109375248D01*
X139912262Y-109381310D01*
X139917285Y-109416245D01*
X139917285Y-109469984D01*
X139897600Y-109537023D01*
X139880966Y-109557665D01*
X133092074Y-116346556D01*
X133030751Y-116380041D01*
X132961059Y-116375057D01*
X132931885Y-116357899D01*
X132931161Y-116358897D01*
X132761614Y-116235715D01*
X132753410Y-116231535D01*
X132675703Y-116191941D01*
X132624908Y-116143968D01*
X132608113Y-116076147D01*
X132630650Y-116010012D01*
X132673546Y-115972099D01*
X132739493Y-115936849D01*
X132739521Y-115936832D01*
X132870530Y-115849295D01*
X132870536Y-115849291D01*
X132947064Y-115786485D01*
X133058485Y-115675064D01*
X133121291Y-115598536D01*
X133121295Y-115598530D01*
X133208832Y-115467521D01*
X133208844Y-115467501D01*
X133255509Y-115380198D01*
X133315814Y-115234612D01*
X133344555Y-115139864D01*
X133375298Y-114985302D01*
X133375298Y-114985299D01*
X133385000Y-114886789D01*
X133385000Y-114729210D01*
X133375298Y-114630700D01*
X133375298Y-114630697D01*
X133344555Y-114476135D01*
X133315814Y-114381387D01*
X133255509Y-114235801D01*
X133208844Y-114148498D01*
X133208838Y-114148488D01*
X133162465Y-114079085D01*
X132562962Y-114678589D01*
X132545925Y-114615007D01*
X132480099Y-114500993D01*
X132387007Y-114407901D01*
X132272993Y-114342075D01*
X132209410Y-114325037D01*
X132808912Y-113725534D01*
X132739511Y-113679161D01*
X132739500Y-113679155D01*
X132673545Y-113643900D01*
X132623701Y-113594937D01*
X132608241Y-113526799D01*
X132632073Y-113461119D01*
X132675702Y-113424059D01*
X132761610Y-113380287D01*
X132853765Y-113313333D01*
X132927213Y-113259971D01*
X132927215Y-113259968D01*
X132927219Y-113259966D01*
X133071966Y-113115219D01*
X133071968Y-113115215D01*
X133071971Y-113115213D01*
X133124732Y-113042590D01*
X133192287Y-112949610D01*
X133285220Y-112767219D01*
X133348477Y-112572534D01*
X133380500Y-112370352D01*
X133380500Y-112165648D01*
X133367813Y-112085549D01*
X133348477Y-111963465D01*
X133336736Y-111927332D01*
X133285220Y-111768781D01*
X133285216Y-111768773D01*
X133285215Y-111768770D01*
X133283353Y-111764272D01*
X133285456Y-111763400D01*
X133274277Y-111704005D01*
X133300527Y-111639254D01*
X133309973Y-111628657D01*
X138747351Y-106191280D01*
X138808672Y-106157797D01*
X138878364Y-106162781D01*
G37*
%TD.AperFunction*%
%TA.AperFunction,Conductor*%
G36*
X143487482Y-104712292D02*
G01*
X143559890Y-104837708D01*
X143662292Y-104940110D01*
X143787708Y-105012518D01*
X143829765Y-105023787D01*
X143166099Y-105687452D01*
X143151304Y-105700088D01*
X142989923Y-105817340D01*
X142989914Y-105817347D01*
X142817343Y-105989918D01*
X142817339Y-105989923D01*
X142673896Y-106187357D01*
X142563097Y-106404812D01*
X142487678Y-106636927D01*
X142449500Y-106877973D01*
X142449500Y-106937770D01*
X142429815Y-107004809D01*
X142413181Y-107025451D01*
X141057667Y-108380966D01*
X141030739Y-108395669D01*
X141004921Y-108412262D01*
X140998720Y-108413153D01*
X140996344Y-108414451D01*
X140969986Y-108417285D01*
X140916245Y-108417285D01*
X140849206Y-108397600D01*
X140803451Y-108344796D01*
X140792245Y-108293285D01*
X140792245Y-108132111D01*
X140788055Y-108114431D01*
X140752459Y-107964240D01*
X140675033Y-107810071D01*
X140675030Y-107810067D01*
X140675029Y-107810065D01*
X140610872Y-107731308D01*
X140610871Y-107731307D01*
X140610863Y-107731297D01*
X140496349Y-107616783D01*
X140462864Y-107555460D01*
X140460030Y-107529102D01*
X140460030Y-106652699D01*
X140479715Y-106585660D01*
X140496344Y-106565023D01*
X142276466Y-104784901D01*
X142337786Y-104751418D01*
X142407478Y-104756402D01*
X142463411Y-104798274D01*
X142486616Y-104853178D01*
X142488165Y-104862959D01*
X142563560Y-105094998D01*
X142674323Y-105312380D01*
X142741543Y-105404901D01*
X142741544Y-105404902D01*
X143476212Y-104670233D01*
X143487482Y-104712292D01*
G37*
%TD.AperFunction*%
%TA.AperFunction,Conductor*%
G36*
X145213181Y-105359627D02*
G01*
X145246666Y-105420950D01*
X145249500Y-105447308D01*
X145249500Y-105757400D01*
X145229815Y-105824439D01*
X145177011Y-105870194D01*
X145107853Y-105880138D01*
X145044297Y-105851113D01*
X145037819Y-105845081D01*
X145010085Y-105817347D01*
X145010079Y-105817342D01*
X144848698Y-105700092D01*
X144833902Y-105687455D01*
X144170234Y-105023787D01*
X144212292Y-105012518D01*
X144337708Y-104940110D01*
X144440110Y-104837708D01*
X144512518Y-104712292D01*
X144523787Y-104670233D01*
X145213181Y-105359627D01*
G37*
%TD.AperFunction*%
%TA.AperFunction,Conductor*%
G36*
X108268834Y-84673865D02*
G01*
X108324767Y-84715737D01*
X108349184Y-84781201D01*
X108349500Y-84790047D01*
X108349500Y-95195192D01*
X108329815Y-95262231D01*
X108313181Y-95282873D01*
X106648479Y-96947574D01*
X106587156Y-96981059D01*
X106517464Y-96976075D01*
X106461531Y-96934203D01*
X106438325Y-96879292D01*
X106417090Y-96745215D01*
X106410023Y-96723466D01*
X106346766Y-96528781D01*
X106339241Y-96505621D01*
X106339239Y-96505618D01*
X106339239Y-96505616D01*
X106285678Y-96400498D01*
X106224870Y-96281155D01*
X106151944Y-96180781D01*
X106076798Y-96077350D01*
X106076794Y-96077345D01*
X105937130Y-95937681D01*
X105903645Y-95876358D01*
X105908629Y-95806666D01*
X105937130Y-95762319D01*
X106006229Y-95693220D01*
X106076793Y-95622656D01*
X106224870Y-95418845D01*
X106339241Y-95194379D01*
X106417090Y-94954785D01*
X106456500Y-94705962D01*
X106456500Y-94454038D01*
X106417090Y-94205215D01*
X106339241Y-93965621D01*
X106339239Y-93965618D01*
X106339239Y-93965616D01*
X106261463Y-93812973D01*
X106224870Y-93741155D01*
X106187903Y-93690274D01*
X106076798Y-93537350D01*
X106076794Y-93537345D01*
X105898654Y-93359205D01*
X105898649Y-93359201D01*
X105694846Y-93211130D01*
X105668979Y-93197950D01*
X105637594Y-93175147D01*
X105067059Y-92604612D01*
X105087591Y-92599111D01*
X105224408Y-92520119D01*
X105336119Y-92408408D01*
X105415111Y-92271591D01*
X105420612Y-92251060D01*
X106150250Y-92980698D01*
X106150250Y-92980697D01*
X106224442Y-92878581D01*
X106224446Y-92878575D01*
X106338780Y-92654184D01*
X106416602Y-92414669D01*
X106456000Y-92165928D01*
X106456000Y-91914071D01*
X106416602Y-91665330D01*
X106338780Y-91425815D01*
X106224442Y-91201416D01*
X106150250Y-91099301D01*
X106150250Y-91099300D01*
X105420612Y-91828939D01*
X105415111Y-91808409D01*
X105336119Y-91671592D01*
X105224408Y-91559881D01*
X105087591Y-91480889D01*
X105067058Y-91475387D01*
X105796698Y-90745748D01*
X105694583Y-90671557D01*
X105470184Y-90557219D01*
X105230669Y-90479397D01*
X104981928Y-90440000D01*
X104730072Y-90440000D01*
X104481330Y-90479397D01*
X104241815Y-90557219D01*
X104017413Y-90671559D01*
X103915301Y-90745747D01*
X103915300Y-90745748D01*
X104644940Y-91475387D01*
X104624409Y-91480889D01*
X104487592Y-91559881D01*
X104375881Y-91671592D01*
X104296889Y-91808409D01*
X104291387Y-91828940D01*
X103720852Y-91258405D01*
X103698048Y-91227018D01*
X103684869Y-91201153D01*
X103536798Y-90997350D01*
X103536794Y-90997345D01*
X103358654Y-90819205D01*
X103358649Y-90819201D01*
X103154848Y-90671131D01*
X103134203Y-90660612D01*
X103083408Y-90612637D01*
X103066500Y-90550128D01*
X103066500Y-89825047D01*
X103086185Y-89758008D01*
X103102819Y-89737366D01*
X108137819Y-84702366D01*
X108199142Y-84668881D01*
X108268834Y-84673865D01*
G37*
%TD.AperFunction*%
%TA.AperFunction,Conductor*%
G36*
X103451147Y-95361594D02*
G01*
X103473950Y-95392979D01*
X103487130Y-95418846D01*
X103635201Y-95622649D01*
X103635205Y-95622654D01*
X103774870Y-95762319D01*
X103779208Y-95770264D01*
X103786456Y-95775690D01*
X103795690Y-95800449D01*
X103808355Y-95823642D01*
X103807709Y-95832671D01*
X103810873Y-95841154D01*
X103805256Y-95866974D01*
X103803371Y-95893334D01*
X103797552Y-95902387D01*
X103796021Y-95909427D01*
X103774870Y-95937681D01*
X103673681Y-96038870D01*
X103612358Y-96072355D01*
X103542666Y-96067371D01*
X103498319Y-96038870D01*
X103358654Y-95899205D01*
X103358649Y-95899201D01*
X103154846Y-95751130D01*
X103128979Y-95737950D01*
X103097594Y-95715147D01*
X102527059Y-95144612D01*
X102547591Y-95139111D01*
X102684408Y-95060119D01*
X102796119Y-94948408D01*
X102875111Y-94811591D01*
X102880612Y-94791059D01*
X103451147Y-95361594D01*
G37*
%TD.AperFunction*%
%TA.AperFunction,Conductor*%
G36*
X104296889Y-92271591D02*
G01*
X104375881Y-92408408D01*
X104487592Y-92520119D01*
X104624409Y-92599111D01*
X104644940Y-92604612D01*
X104074404Y-93175147D01*
X104043023Y-93197948D01*
X104017152Y-93211131D01*
X103813350Y-93359201D01*
X103813345Y-93359205D01*
X103635205Y-93537345D01*
X103635201Y-93537350D01*
X103487131Y-93741152D01*
X103473948Y-93767023D01*
X103451147Y-93798404D01*
X102880612Y-94368939D01*
X102875111Y-94348409D01*
X102796119Y-94211592D01*
X102684408Y-94099881D01*
X102547591Y-94020889D01*
X102527057Y-94015387D01*
X103097594Y-93444851D01*
X103128975Y-93422051D01*
X103154845Y-93408870D01*
X103358656Y-93260793D01*
X103536793Y-93082656D01*
X103684870Y-92878845D01*
X103698051Y-92852975D01*
X103720851Y-92821594D01*
X104291387Y-92251058D01*
X104296889Y-92271591D01*
G37*
%TD.AperFunction*%
%TA.AperFunction,Conductor*%
G36*
X112925624Y-86596834D02*
G01*
X112981557Y-86638706D01*
X113005974Y-86704170D01*
X113004764Y-86732411D01*
X112999500Y-86765651D01*
X112999500Y-86970351D01*
X113031522Y-87172534D01*
X113094781Y-87367223D01*
X113187715Y-87549613D01*
X113308028Y-87715213D01*
X113452786Y-87859971D01*
X113618388Y-87980286D01*
X113618390Y-87980287D01*
X113704294Y-88024057D01*
X113755090Y-88072031D01*
X113771886Y-88139852D01*
X113749349Y-88205987D01*
X113706455Y-88243899D01*
X113640497Y-88279155D01*
X113571086Y-88325534D01*
X113571085Y-88325534D01*
X114170589Y-88925037D01*
X114107007Y-88942075D01*
X113992993Y-89007901D01*
X113899901Y-89100993D01*
X113834075Y-89215007D01*
X113817037Y-89278588D01*
X113217534Y-88679085D01*
X113217534Y-88679086D01*
X113171158Y-88748493D01*
X113124490Y-88835801D01*
X113064185Y-88981387D01*
X113035444Y-89076135D01*
X113004701Y-89230697D01*
X113004701Y-89230700D01*
X112995000Y-89329210D01*
X112995000Y-89486789D01*
X113004701Y-89585299D01*
X113004701Y-89585302D01*
X113035444Y-89739864D01*
X113064185Y-89834612D01*
X113124490Y-89980198D01*
X113171155Y-90067501D01*
X113171161Y-90067511D01*
X113217534Y-90136912D01*
X113817037Y-89537410D01*
X113834075Y-89600993D01*
X113899901Y-89715007D01*
X113992993Y-89808099D01*
X114107007Y-89873925D01*
X114170589Y-89890962D01*
X113571085Y-90490465D01*
X113640488Y-90536838D01*
X113640498Y-90536844D01*
X113706454Y-90572099D01*
X113756298Y-90621062D01*
X113771758Y-90689200D01*
X113747926Y-90754879D01*
X113704295Y-90791942D01*
X113618386Y-90835715D01*
X113452786Y-90956028D01*
X113308028Y-91100786D01*
X113187713Y-91266388D01*
X113179864Y-91281794D01*
X113131890Y-91332591D01*
X113069379Y-91349500D01*
X111435929Y-91349500D01*
X111310261Y-91374497D01*
X111310251Y-91374500D01*
X111261220Y-91394810D01*
X111191881Y-91423530D01*
X111191863Y-91423540D01*
X111085332Y-91494721D01*
X111085325Y-91494727D01*
X110362181Y-92217872D01*
X110300858Y-92251357D01*
X110231166Y-92246373D01*
X110175233Y-92204501D01*
X110150816Y-92139037D01*
X110150500Y-92130191D01*
X110150500Y-89320807D01*
X110170185Y-89253768D01*
X110186814Y-89233131D01*
X112794611Y-86625333D01*
X112855932Y-86591850D01*
X112925624Y-86596834D01*
G37*
%TD.AperFunction*%
%TA.AperFunction,Conductor*%
G36*
X130818809Y-73474360D02*
G01*
X130874742Y-73516232D01*
X130899159Y-73581696D01*
X130885961Y-73646834D01*
X130874783Y-73668773D01*
X130874781Y-73668778D01*
X130874780Y-73668781D01*
X130860095Y-73713976D01*
X130811522Y-73863465D01*
X130779500Y-74065648D01*
X130779500Y-74270351D01*
X130811522Y-74472534D01*
X130874781Y-74667223D01*
X130905676Y-74727856D01*
X130952140Y-74819047D01*
X130967715Y-74849613D01*
X131088028Y-75015213D01*
X131232782Y-75159967D01*
X131232787Y-75159971D01*
X131309583Y-75215767D01*
X131352249Y-75271097D01*
X131358228Y-75340710D01*
X131325622Y-75402505D01*
X131267365Y-75436233D01*
X131246973Y-75441437D01*
X131246962Y-75441441D01*
X131190415Y-75464863D01*
X131950589Y-76225037D01*
X131887007Y-76242075D01*
X131772993Y-76307901D01*
X131679901Y-76400993D01*
X131614075Y-76515007D01*
X131597037Y-76578589D01*
X130836863Y-75818415D01*
X130836862Y-75818415D01*
X130813446Y-75874947D01*
X130813431Y-75874987D01*
X130795457Y-75925939D01*
X130795455Y-75925946D01*
X130775000Y-76068219D01*
X130775000Y-77347785D01*
X130777893Y-77401762D01*
X130777893Y-77401764D01*
X130813438Y-77541030D01*
X130813442Y-77541043D01*
X130836862Y-77597584D01*
X131597037Y-76837410D01*
X131614075Y-76900993D01*
X131679901Y-77015007D01*
X131772993Y-77108099D01*
X131887007Y-77173925D01*
X131950589Y-77190962D01*
X131190414Y-77951135D01*
X131246960Y-77974557D01*
X131246986Y-77974567D01*
X131275621Y-77984669D01*
X131332294Y-78025534D01*
X131357876Y-78090552D01*
X131344246Y-78159080D01*
X131307256Y-78201924D01*
X131232782Y-78256032D01*
X131088028Y-78400786D01*
X130967715Y-78566386D01*
X130874781Y-78748776D01*
X130811522Y-78943465D01*
X130779220Y-79147415D01*
X130749291Y-79210550D01*
X130689979Y-79247481D01*
X130620117Y-79246483D01*
X130569066Y-79215698D01*
X128767421Y-77414052D01*
X128767414Y-77414046D01*
X128693729Y-77364812D01*
X128693729Y-77364813D01*
X128644491Y-77331913D01*
X128507917Y-77275343D01*
X128507907Y-77275340D01*
X128362920Y-77246500D01*
X128362918Y-77246500D01*
X115729000Y-77246500D01*
X115661961Y-77226815D01*
X115616206Y-77174011D01*
X115605000Y-77122500D01*
X115605000Y-76285500D01*
X115624685Y-76218461D01*
X115677489Y-76172706D01*
X115729000Y-76161500D01*
X116221481Y-76161500D01*
X116288520Y-76181185D01*
X116309162Y-76197819D01*
X116855453Y-76744111D01*
X116855454Y-76744112D01*
X116970192Y-76820777D01*
X117097667Y-76873578D01*
X117097672Y-76873580D01*
X117097676Y-76873580D01*
X117097677Y-76873581D01*
X117233003Y-76900500D01*
X117233006Y-76900500D01*
X127068996Y-76900500D01*
X127160040Y-76882389D01*
X127204328Y-76873580D01*
X127268069Y-76847177D01*
X127331807Y-76820777D01*
X127331808Y-76820776D01*
X127331811Y-76820775D01*
X127446543Y-76744114D01*
X130687796Y-73502859D01*
X130749117Y-73469376D01*
X130818809Y-73474360D01*
G37*
%TD.AperFunction*%
%TD*%
M02*
