M48
; DRILL file {KiCad 9.0.3} date 2025-09-04T19:13:08+0900
; FORMAT={3:3/ absolute / metric / suppress leading zeros}
; #@! TF.CreationDate,2025-09-04T19:13:08+09:00
; #@! TF.GenerationSoftware,Kicad,Pcbnew,9.0.3
; #@! TF.FileFunction,MixedPlating,1,2
FMAT,2
METRIC,TZ
; #@! TA.AperFunction,Plated,PTH,ViaDrill
T1C0.300
; #@! TA.AperFunction,Plated,PTH,ComponentDrill
T2C0.500
; #@! TA.AperFunction,Plated,PTH,ComponentDrill
T3C1.000
; #@! TA.AperFunction,Plated,PTH,ComponentDrill
T4C1.100
; #@! TA.AperFunction,Plated,PTH,ComponentDrill
T5C3.200
; #@! TA.AperFunction,NonPlated,NPTH,ComponentDrill
T6C1.850
; #@! TA.AperFunction,NonPlated,NPTH,ComponentDrill
T7C2.200
%
G90
G05
T1
X88036Y-115570
X88519Y-98755
X88773Y-80772
X89408Y-105664
X89865Y-88697
X93116Y-91796
X93980Y-85217
X94285Y-102057
X94869Y-109728
X95250Y-71628
X95250Y-120904
X97536Y-81026
X98044Y-89662
X99568Y-115697
X99771Y-96672
X99822Y-105029
X100127Y-88697
X102921Y-90932
X103124Y-85852
X103759Y-73787
X103759Y-121285
X104089Y-88443
X104648Y-80264
X105283Y-113157
X105664Y-117221
X106045Y-105410
X106045Y-110490
X106807Y-71501
X107188Y-89256
X107188Y-91897
X107594Y-94183
X107747Y-86258
X107950Y-76708
X109728Y-79756
X110490Y-91186
X110617Y-76708
X110871Y-103505
X110871Y-105537
X110896Y-87224
X110998Y-120904
X111125Y-100686
X111125Y-111252
X111252Y-108102
X111608Y-93269
X112522Y-89408
X116078Y-76708
X116078Y-118237
X116180Y-79400
X116586Y-83820
X118745Y-89535
X118999Y-111760
X119126Y-97155
X119126Y-120523
X119253Y-103759
X122072Y-78232
X123063Y-93218
X123063Y-99441
X123190Y-108839
X123444Y-81686
X126746Y-103505
X126873Y-97028
X127000Y-88265
X127127Y-111760
X127889Y-120523
X128270Y-81534
X129667Y-76073
X129845Y-79197
X135001Y-110871
X135128Y-80645
X135128Y-113665
X135255Y-88011
X135382Y-71628
X135382Y-76708
X135382Y-84328
X136906Y-110363
X137033Y-86106
X137541Y-118872
X138227Y-107645
X138430Y-78867
X138430Y-83820
X138557Y-74041
X138938Y-109728
X139700Y-82931
X141097Y-107569
X142240Y-105664
X142494Y-112649
X143129Y-82931
X143510Y-87630
X143637Y-95885
X144018Y-99949
X144145Y-93599
X145542Y-112268
X146177Y-102108
X147574Y-114554
X147828Y-78867
X147955Y-84963
X147955Y-90678
T2
X89600Y-75500
X89600Y-117500
X90303Y-73803
X90303Y-77197
X90303Y-115803
X90303Y-119197
X92000Y-73100
X92000Y-77900
X92000Y-115100
X92000Y-119900
X93697Y-73803
X93697Y-77197
X93697Y-115803
X93697Y-119197
X94400Y-75500
X94400Y-117500
X141600Y-75500
X141600Y-117500
X142303Y-73803
X142303Y-77197
X142303Y-115803
X142303Y-119197
X144000Y-73100
X144000Y-77900
X144000Y-115100
X144000Y-119900
X145697Y-73803
X145697Y-77197
X145697Y-115803
X145697Y-119197
X146400Y-75500
X146400Y-117500
T3
X102870Y-92710
X102870Y-95250
X102870Y-97790
X102870Y-100330
X102870Y-102870
X103500Y-111960
X103500Y-114500
X103500Y-117040
X105410Y-92710
X105410Y-95250
X105410Y-97790
X105410Y-100330
X105410Y-102870
X114300Y-71628
X114300Y-74168
X114300Y-76708
X114300Y-79248
X114300Y-81788
X114300Y-84328
X114300Y-86868
X114300Y-89408
X114300Y-91948
X114300Y-94488
X114300Y-97028
X114300Y-99568
X114300Y-102108
X114300Y-104648
X114300Y-107188
X114300Y-109728
X114300Y-112268
X114300Y-114808
X114300Y-117348
X114300Y-119888
X132080Y-71628
X132080Y-74168
X132080Y-76708
X132080Y-79248
X132080Y-81788
X132080Y-84328
X132080Y-86868
X132080Y-89408
X132080Y-91948
X132080Y-94488
X132080Y-97028
X132080Y-99568
X132080Y-102108
X132080Y-104648
X132080Y-107188
X132080Y-109728
X132080Y-112268
X132080Y-114808
X132080Y-117348
X132080Y-119888
X140975Y-84890
X140975Y-87430
X140975Y-89970
X140975Y-92510
X140975Y-95050
T4
X102316Y-75396
X102316Y-77896
X102316Y-80396
X102316Y-82896
X144000Y-102000
X144000Y-104500
X144000Y-107000
X144000Y-109500
T5
X92000Y-75500
X92000Y-117500
X144000Y-75500
X144000Y-117500
T6
X120765Y-74788
X125615Y-74788
T7
X120465Y-71758
X125915Y-71758
M30
